<?xml version="1.0" encoding="utf-8"?>
<!-- Generator: Adobe Illustrator 25.4.1, SVG Export Plug-In . SVG Version: 6.00 Build 0)  -->
<svg version="1.0" id="レイヤー_1" xmlns="http://www.w3.org/2000/svg" xmlns:xlink="http://www.w3.org/1999/xlink" x="0px"
	 y="0px" width="114px" height="39px" viewBox="0 0 114 39" style="enable-background:new 0 0 114 39;" xml:space="preserve">
<path d="M32.436,38.337c0.12,0,0.15-0.03,0.15-0.15V1.009c0-0.114-0.034-0.148-0.15-0.148h-5.858c-0.114,0-0.15,0.034-0.15,0.148
	v37.178c0,0.116,0.035,0.15,0.15,0.15H32.436 M41.779,24.42c0-0.116-0.034-0.15-0.15-0.15h-5.89c-0.116,0-0.151,0.034-0.151,0.15
	v7.546c0,2.035,0.617,3.675,1.831,4.878C39.313,38.72,42.091,39,43.578,39c1.466,0,3.574-0.272,5.286-1.565
	c1.733-1.313,2.613-3.346,2.613-6.043v-3.935c0-2.925-1.281-4.778-2.958-6.893l-3.814-4.874l-0.116-0.146
	c-1.751-2.2-2.808-3.528-2.808-6.209l-0.001-2.196c0-1.449,0.559-2.124,1.757-2.124c0.464,0,0.842,0.143,1.127,0.424
	c0.431,0.427,0.649,1.166,0.649,2.197v6.612c0,0.114,0.034,0.149,0.15,0.149h5.799c0.121,0,0.151-0.03,0.151-0.149V6.577
	c0-1.779-0.607-3.321-1.754-4.457C48.257,0.734,46.155,0,43.578,0c-2.567,0-4.662,0.73-6.058,2.112
	c-1.227,1.215-1.875,2.9-1.875,4.874v4.019c0,1.974,0.838,4.343,2.083,5.893l5.533,7.072l0.248,0.307
	c1.047,1.294,1.803,2.229,1.803,3.886v3.659c0,0.724-0.193,1.298-0.559,1.66c-0.307,0.303-0.727,0.458-1.248,0.458
	c-0.407,0-0.87-0.048-1.222-0.397c-0.333-0.331-0.503-0.887-0.503-1.653V24.42z M106.549,23.49l-1.156-11.277
	c-0.006-0.054-0.015-0.144-0.019-0.197l-0.289-4.059c-0.001-0.029-0.022-0.052-0.038-0.052c-0.017,0-0.037,0.023-0.038,0.051
	l-0.289,4.059c-0.005,0.054-0.012,0.143-0.018,0.199l-1.156,11.26c-0.015,0.123-0.008,0.145,0.148,0.145h2.752
	C106.532,23.617,106.558,23.622,106.549,23.49z M103.115,28.854c-0.071,0-0.11,0.044-0.116,0.11l-0.953,9.231
	c-0.012,0.116-0.038,0.143-0.159,0.143h-5.653c-0.107,0-0.151-0.04-0.138-0.154l4.174-37.18c0.013-0.116,0.038-0.143,0.161-0.143
	h9.231c0.122,0,0.148,0.026,0.161,0.143l4.175,37.18c0.013,0.114-0.031,0.154-0.139,0.154h-5.652c-0.122,0-0.148-0.027-0.16-0.143
	l-0.952-9.231c-0.008-0.066-0.065-0.11-0.135-0.11H103.115z M11.279,21.979c-0.028,0-0.054-0.024-0.056-0.053l-0.382-5.523
	c-0.003-0.054-0.012-0.145-0.018-0.199L8.798,1.001c-0.016-0.116-0.04-0.141-0.163-0.141H0.15C0.034,0.861,0,0.895,0,1.009v37.178
	c0,0.119,0.029,0.148,0.15,0.148h5.42c0.116,0,0.15-0.035,0.15-0.148v-20.73c-0.088-1.235-0.151-2.652-0.154-3.464
	c0,0,0.006-0.043,0.044-0.043c0.038,0,0.046,0.043,0.046,0.043l0.387,3.88l0.022,0.198l2.383,20.123
	c0.015,0.117,0.038,0.141,0.161,0.141h5.386c0.123,0,0.147-0.025,0.161-0.141l2.383-20.123l0.022-0.198l0.388-3.88
	c0,0,0.008-0.043,0.046-0.043c0.038,0,0.044,0.043,0.044,0.043c-0.003,0.812-0.065,2.229-0.153,3.464v20.73
	c0,0.114,0.034,0.148,0.15,0.148h5.419c0.121,0,0.15-0.03,0.15-0.148V1.009c0-0.114-0.035-0.148-0.15-0.148h-8.486
	c-0.123,0-0.146,0.025-0.162,0.141l-2.025,15.203c-0.007,0.054-0.016,0.145-0.019,0.199l-0.382,5.523
	c-0.002,0.029-0.027,0.053-0.056,0.053H11.279z M63.107,23.49l-1.155-11.277c-0.007-0.054-0.014-0.144-0.019-0.197l-0.289-4.059
	c-0.003-0.029-0.022-0.052-0.039-0.052c-0.017,0-0.037,0.023-0.038,0.051l-0.289,4.059c-0.005,0.054-0.012,0.143-0.018,0.199
	l-1.155,11.26c-0.015,0.123-0.008,0.145,0.146,0.145h2.752C63.091,23.617,63.117,23.622,63.107,23.49z M59.675,28.854
	c-0.071,0-0.11,0.044-0.116,0.11l-0.953,9.231c-0.012,0.116-0.037,0.143-0.159,0.143h-5.654c-0.107,0-0.15-0.04-0.138-0.154
	l4.174-37.18c0.013-0.116,0.039-0.143,0.161-0.143h9.232c0.122,0,0.148,0.026,0.161,0.143l4.175,37.18
	c0.014,0.114-0.031,0.154-0.139,0.154h-5.653c-0.122,0-0.148-0.027-0.16-0.143l-0.952-9.231c-0.007-0.066-0.064-0.11-0.135-0.11
	H59.675z M80.106,0.861c-0.122,0-0.148,0.028-0.158,0.144l-1.444,15.696c-0.005,0.056-0.012,0.146-0.015,0.201
	c0,0-0.228,4.424-0.228,4.426c0,0.027-0.023,0.05-0.051,0.05h-0.046c-0.028,0-0.053-0.023-0.053-0.052l-0.265-4.401
	c-0.003-0.054-0.011-0.145-0.017-0.199L76.236,1.003c-0.011-0.114-0.038-0.143-0.16-0.143h-5.762c-0.108,0-0.152,0.04-0.139,0.152
	l4.093,37.182c0.014,0.116,0.038,0.143,0.16,0.143h6.2c0.122,0,0.147-0.027,0.16-0.143l2.256-20.266
	c0.006-0.056,0.013-0.144,0.016-0.2l0.211-4.536c0.001-0.026,0.024-0.05,0.051-0.05h0.027c0.027,0,0.051,0.024,0.051,0.051
	l0.212,4.536c0.003,0.056,0.01,0.145,0.016,0.2l2.256,20.266c0.013,0.116,0.038,0.143,0.161,0.143h6.198
	c0.122,0,0.148-0.027,0.161-0.143l4.093-37.182c0.013-0.112-0.03-0.152-0.138-0.152h-5.762c-0.123,0-0.148,0.028-0.161,0.143
	l-1.592,15.723c-0.006,0.054-0.013,0.143-0.017,0.199c0,0-0.265,4.401-0.265,4.402c-0.001,0.027-0.025,0.05-0.053,0.05h-0.047
	c-0.028,0-0.051-0.023-0.051-0.052c0,0-0.228-4.424-0.228-4.425c-0.003-0.054-0.009-0.144-0.016-0.2L86.725,1.005
	c-0.01-0.116-0.038-0.144-0.16-0.144H80.106z"/>
</svg>
