<svg width="101" height="74" viewBox="0 0 101 74" fill="none" xmlns="http://www.w3.org/2000/svg">
<path d="M49.7974 5.77285L47.718 5.35416C47.7858 3.60974 47.8578 1.66802 47.9364 0C47.5144 0.0646805 47.1107 0.121764 46.7261 0.169515C46.3372 0.218351 45.9482 0.24049 45.5677 0.24049C45.1799 0.24049 44.7918 0.218351 44.4083 0.169515C44.0226 0.121764 43.6175 0.0646805 43.198 0C43.2657 1.39367 43.3252 2.98008 43.3803 4.48727L38.7902 3.56525V43.2613L49.7974 41.0528L50.8359 41.269C50.7161 41.8095 50.5701 42.3161 50.3951 42.7845C49.9743 43.912 49.365 44.7917 48.5617 45.4181C47.7582 46.0497 46.6784 46.3623 45.324 46.3623L45.7149 47.7126C47.1298 47.7126 48.4397 47.4475 49.6478 46.9166C50.8583 46.3825 51.8936 45.6512 52.7638 44.7208C53.5024 43.9259 54.0928 43.0336 54.5401 42.0448L60.3922 43.2689V3.55352L49.7974 5.77285ZM49.808 39.0402L40.7647 40.8514V5.97102L43.4576 6.5093C43.4608 6.58874 43.465 6.67035 43.466 6.74675C43.5487 8.79222 43.5869 10.8778 43.5869 13.0017V21.3107C43.5869 23.4356 43.5487 25.5308 43.466 27.5921C43.3855 29.6524 43.2976 31.6776 43.198 33.6775C44.7453 33.6128 46.2332 33.5812 47.6651 33.5812H51.3668V35.58C51.3668 37.4781 51.3065 37.2311 51.1952 38.7784C51.1815 38.9618 51.1635 39.1419 51.1465 39.3188L49.808 39.0402ZM58.4201 40.8451L55.1737 40.1647C55.3699 39.3358 55.4662 38.452 55.4662 37.5193C55.4662 36.3609 55.4578 37.0626 55.445 35.6742C55.4261 34.2933 55.4144 32.8499 55.3901 31.3534C55.3805 29.8559 55.3614 28.3318 55.3454 26.7867C55.3306 25.2456 55.3221 23.743 55.3221 22.2963C55.3221 20.1704 55.3614 18.0845 55.445 16.0423C55.5246 13.9979 55.6167 12.4039 55.7059 10.2812C55.2894 10.3426 54.8876 10.401 54.503 10.4476C54.1151 10.4952 53.7303 10.5197 53.3424 10.5197C52.9578 10.5197 52.5667 10.4952 52.1799 10.4476C51.7994 10.401 51.3955 10.3426 50.9779 10.2812C51.0712 12.4039 51.1602 13.9979 51.2429 16.0423C51.3213 18.0845 51.3668 20.1704 51.3668 22.2963V31.5272C50.1694 31.542 48.9474 31.5526 47.6946 31.5526C47.6618 29.2009 47.628 26.5377 47.5982 23.5574C47.5622 20.5793 47.5463 17.0618 47.5463 13.0017C47.5463 11.0856 47.5791 9.20439 47.646 7.3508L49.808 7.78316L58.4201 5.98057V40.8451Z" fill="white"/>
<path d="M0.0791267 63.9549C0.0549864 63.3447 0.0281637 62.7211 0 62.0867C0.124725 62.1068 0.245427 62.1229 0.360764 62.1377C0.476101 62.1524 0.591439 62.1592 0.706776 62.1592C0.822113 62.1592 0.93745 62.1524 1.05279 62.1377C1.16812 62.1229 1.28883 62.1068 1.41355 62.0867C1.38405 62.7211 1.35722 63.3447 1.33442 63.9549C1.31028 64.5651 1.29821 65.1874 1.29821 65.8218C1.29821 67.0342 1.30224 68.0843 1.31163 68.9734C1.32235 69.8626 1.33174 70.6592 1.34113 71.3606C2.02377 71.3606 2.6769 71.3539 3.3032 71.3392C3.92817 71.3244 4.60008 71.2695 5.32161 71.1729C5.27333 71.3459 5.24919 71.4907 5.24919 71.6061C5.24919 71.712 5.27333 71.8421 5.32161 71.995C4.87903 71.9762 4.43646 71.9668 3.99523 71.9668C3.55265 71.9668 3.11008 71.9668 2.66751 71.9668C2.20616 71.9668 1.76225 71.9668 1.33442 71.9668C0.906604 71.9668 0.461349 71.9762 0 71.995C0.0281637 71.3995 0.0549864 70.7934 0.0791267 70.1778C0.103267 69.5635 0.115337 68.9372 0.115337 68.3029V65.8218C0.115337 65.1874 0.103267 64.5651 0.0791267 63.9549Z" fill="white"/>
<path d="M7.57068 68.7937C7.57068 67.6108 7.85232 66.6828 8.41559 66.0095C8.97752 65.3376 9.79696 65.001 10.8739 65.001C11.3835 65.001 11.8234 65.0801 12.1936 65.2384C12.5637 65.3966 12.8735 65.6085 13.1243 65.8727C13.3738 66.1369 13.5588 66.4481 13.6795 66.8035C13.7989 67.1589 13.8592 67.5384 13.8592 67.9421C13.8592 68.0386 13.8566 68.1325 13.8525 68.2237C13.8472 68.3149 13.8405 68.4088 13.8311 68.5054C13.3121 68.496 12.7971 68.4852 12.2874 68.4758C11.7778 68.4665 11.2628 68.4611 10.7438 68.4611C10.4273 68.4611 10.1121 68.4665 9.79964 68.4758C9.48715 68.4852 9.17199 68.496 8.85548 68.5054C8.84475 68.5536 8.84073 68.6247 8.84073 68.7213V68.909C8.84073 69.2832 8.89572 69.6346 9.00569 69.9618C9.117 70.2891 9.27794 70.5694 9.48984 70.8054C9.70039 71.0414 9.96057 71.2292 10.2677 71.3673C10.5762 71.5068 10.9316 71.5765 11.3352 71.5765C11.5284 71.5765 11.7255 71.5511 11.9267 71.4974C12.1292 71.4451 12.3263 71.3727 12.5181 71.2815C12.7099 71.1903 12.8909 71.0817 13.0586 70.9569C13.2276 70.8322 13.3738 70.6968 13.4985 70.5533L13.5709 70.5962L13.4851 71.3029C13.1967 71.5336 12.8373 71.7308 12.4095 71.8944C11.9817 72.058 11.5377 72.1398 11.0764 72.1398C10.556 72.1398 10.0826 72.0607 9.6548 71.9011C9.22698 71.7428 8.85682 71.5122 8.54434 71.2091C8.23186 70.906 7.99179 70.5479 7.82415 70.1348C7.65517 69.7218 7.57068 69.2738 7.57068 68.7937ZM10.9034 65.4623C10.5466 65.4623 10.2462 65.5441 10.0008 65.7064C9.75672 65.87 9.55421 66.0752 9.39596 66.3206C9.23636 66.5647 9.117 66.8343 9.03519 67.128C8.95338 67.4217 8.90242 67.698 8.88365 67.9568C9.18138 67.9662 9.49118 67.9769 9.81439 67.9863C10.1363 67.9957 10.4514 67.9997 10.7585 67.9997C11.0764 67.9997 11.3983 67.9957 11.7255 67.9863C12.0514 67.9769 12.3692 67.9662 12.6764 67.9568C12.6764 67.698 12.6549 67.4231 12.612 67.1347C12.5691 66.8464 12.4819 66.5768 12.3518 66.3274C12.2231 66.0779 12.042 65.87 11.8113 65.7064C11.5807 65.5441 11.2776 65.4623 10.9034 65.4623Z" fill="white"/>
<path d="M23.1908 73.3147C23.4309 73.1269 23.6146 72.8654 23.7394 72.5288C23.8641 72.1921 23.9432 71.7938 23.9767 71.3325C24.0103 70.8698 24.0277 70.3561 24.0277 69.7888V65.8218C24.0277 65.1874 24.0156 64.5651 23.9915 63.9549C23.9673 63.3447 23.9405 62.7211 23.9124 62.0867C24.0371 62.1068 24.1578 62.1229 24.2731 62.1377C24.3885 62.1524 24.5038 62.1592 24.6191 62.1592C24.7345 62.1592 24.8498 62.1524 24.9651 62.1377C25.0805 62.1229 25.2012 62.1068 25.3259 62.0867C25.2964 62.7211 25.2696 63.3447 25.2468 63.9549C25.2226 64.5651 25.2106 65.1874 25.2106 65.8218C25.2106 66.255 25.2119 66.7016 25.2173 67.1643C25.2226 67.6256 25.2267 68.0802 25.232 68.5268C25.2361 68.9734 25.2414 69.4039 25.2468 69.817C25.2508 70.2314 25.2535 70.611 25.2535 70.957C25.2535 71.3902 25.1838 71.7858 25.0443 72.1466C24.9048 72.5073 24.705 72.8265 24.4461 73.1055C24.186 73.3844 23.8762 73.603 23.5154 73.7626C23.1546 73.9209 22.763 74 22.3406 74L22.2252 73.5963C22.6289 73.5963 22.9508 73.5024 23.1908 73.3147Z" fill="white"/>
<path d="M38.0466 71.995C37.9124 71.9762 37.785 71.9669 37.6643 71.9669C37.5436 71.9669 37.4176 71.9669 37.2821 71.9669C37.148 71.9669 37.0206 71.9669 36.8999 71.9669C36.7792 71.9669 36.6531 71.9762 36.5177 71.995C36.4506 71.7737 36.3594 71.5068 36.2441 71.1944C36.1287 70.8832 36.0013 70.556 35.8619 70.214C35.7224 69.8733 35.5802 69.5273 35.4367 69.176C35.2919 68.8246 35.1578 68.4906 35.033 68.1728C34.7246 68.1634 34.4121 68.1567 34.0956 68.1513C33.7777 68.1473 33.4599 68.1446 33.1434 68.1446C32.8443 68.1446 32.5519 68.1473 32.2636 68.1513C31.9753 68.1567 31.6816 68.1634 31.3838 68.1728C31.0754 68.9238 30.7964 69.6373 30.547 70.3146C30.2975 70.9932 30.1097 71.5538 29.985 71.995C29.8214 71.9762 29.643 71.9669 29.4513 71.9669C29.2581 71.9669 29.0811 71.9762 28.9175 71.995C29.6967 70.3132 30.4558 68.6395 31.1961 66.9765C31.9364 65.3135 32.682 63.621 33.4317 61.899H33.7053C33.936 62.4569 34.1868 63.0604 34.455 63.7095C34.7246 64.3586 34.9982 65.0144 35.2771 65.6783C35.5561 66.3422 35.835 67.0006 36.114 67.6538C36.3929 68.3082 36.6545 68.9158 36.8999 69.4791C37.1453 70.041 37.3666 70.5439 37.5637 70.9851C37.7609 71.4277 37.9218 71.7643 38.0466 71.995ZM31.6574 67.5103C31.9069 67.5103 32.167 67.5143 32.4366 67.5237C32.7048 67.5344 32.965 67.5384 33.2158 67.5384C33.484 67.5384 33.7536 67.5371 34.0232 67.5317C34.2914 67.5264 34.561 67.5197 34.8305 67.5103L33.2292 63.8463L31.6574 67.5103Z" fill="white"/>
<path d="M42.0137 65.8218C42.0137 65.1874 42.0016 64.5651 41.9774 63.9549C41.9533 63.3447 41.9265 62.7211 41.8983 62.0867C42.2631 62.1068 42.6265 62.1229 42.9873 62.1377C43.3481 62.1524 43.7102 62.1592 44.0763 62.1592C44.4411 62.1592 44.8045 62.1471 45.1653 62.1229C45.5261 62.0988 45.8882 62.0867 46.2543 62.0867C47.0992 62.0867 47.8234 62.198 48.4243 62.4193C49.0251 62.6406 49.5186 62.9544 49.9022 63.3635C50.2871 63.7725 50.5687 64.2714 50.7471 64.8629C50.9241 65.4543 51.0126 66.1209 51.0126 66.8612C51.0126 67.8227 50.8477 68.6328 50.5151 69.2913C50.1838 69.9498 49.7614 70.4809 49.2464 70.8845C48.7314 71.2882 48.1654 71.5752 47.5445 71.7429C46.9249 71.9119 46.3308 71.995 45.7635 71.995C45.4362 71.995 45.1143 71.991 44.7965 71.9816C44.48 71.9709 44.1581 71.9668 43.8309 71.9668C43.5036 71.9668 43.1818 71.9668 42.8639 71.9668C42.5474 71.9668 42.2256 71.9762 41.8983 71.995C41.9265 71.3995 41.9533 70.7934 41.9774 70.1778C42.0016 69.5635 42.0137 68.9372 42.0137 68.3029V65.8218V65.8218ZM43.1965 68.3029C43.1965 69.3422 43.2247 70.3615 43.2824 71.3606C43.4849 71.4089 43.7585 71.4451 44.1045 71.4693C44.4505 71.4934 44.8072 71.5055 45.172 71.5055C45.7004 71.5055 46.2302 71.4425 46.7586 71.3177C47.287 71.193 47.7604 70.957 48.1788 70.611C48.5973 70.2649 48.9393 69.7915 49.2035 69.1907C49.4677 68.5899 49.6004 67.8134 49.6004 66.8612C49.6004 66.0243 49.4958 65.3376 49.2893 64.7985C49.0828 64.2607 48.7998 63.8342 48.439 63.5217C48.0782 63.2093 47.6477 62.9933 47.1475 62.8726C46.6486 62.7533 46.1001 62.6929 45.5033 62.6929C45.0714 62.6929 44.6678 62.7077 44.2922 62.7358C43.9167 62.7653 43.5801 62.7989 43.2824 62.8364C43.2542 63.2991 43.2327 63.7819 43.218 64.2862C43.2032 64.7918 43.1965 65.3028 43.1965 65.8218V68.3029V68.3029Z" fill="white"/>
<path d="M54.352 63.9335C54.3278 63.3179 54.301 62.7023 54.2728 62.0867C54.7047 62.1068 55.1352 62.1229 55.563 62.1377C55.9908 62.1524 56.4213 62.1592 56.8545 62.1592C57.2863 62.1592 57.7142 62.1524 58.138 62.1377C58.5604 62.1229 58.9882 62.1068 59.4214 62.0867C59.3933 62.2316 59.3785 62.3751 59.3785 62.5199C59.3785 62.6634 59.3933 62.8083 59.4214 62.9518C59.1143 62.933 58.8327 62.9142 58.5779 62.8941C58.323 62.8753 58.0535 62.8565 57.7705 62.8364C57.4862 62.8176 57.1764 62.8016 56.8398 62.7868C56.5031 62.772 56.0994 62.7653 55.6287 62.7653C55.6193 63.0725 55.6073 63.3662 55.5925 63.6451C55.5777 63.9241 55.571 64.2406 55.571 64.596C55.571 64.9715 55.5724 65.3376 55.5777 65.693C55.5831 66.0484 55.5845 66.318 55.5845 66.5004C56.0083 66.5004 56.3878 66.495 56.7244 66.4856C57.061 66.4763 57.3682 66.4642 57.6471 66.4494C57.9261 66.436 58.1836 66.4213 58.4196 66.4065C58.6543 66.3918 58.8783 66.3757 59.0902 66.3555C59.0607 66.5004 59.0459 66.6493 59.0459 66.8035C59.0459 66.947 59.0607 67.0918 59.0902 67.2353C58.8394 67.2072 58.5484 67.183 58.2171 67.1643C57.8858 67.1441 57.5532 67.1321 57.222 67.128C56.8907 67.1227 56.5782 67.1187 56.2845 67.1133C55.9908 67.1079 55.7588 67.1066 55.5845 67.1066C55.5845 67.1924 55.5831 67.2863 55.5777 67.3869C55.5724 67.4888 55.571 67.6162 55.571 67.7691V68.3324V69.1974C55.571 69.7459 55.5724 70.1979 55.5777 70.5533C55.5831 70.9087 55.5898 71.1783 55.5992 71.3606C55.9171 71.3606 56.2537 71.3606 56.6091 71.3606C56.9739 71.3606 57.3319 71.3539 57.6833 71.3392C58.0347 71.3244 58.366 71.3057 58.6784 71.2815C58.9909 71.2574 59.2632 71.2212 59.4938 71.1729C59.4737 71.2413 59.463 71.3151 59.4576 71.3969C59.4523 71.4787 59.4509 71.5538 59.4509 71.6208C59.4509 71.7737 59.4643 71.8998 59.4938 71.995C59.0607 71.9762 58.6302 71.9668 58.2023 71.9668C57.7745 71.9668 57.34 71.9668 56.8974 71.9668C56.4548 71.9668 56.0176 71.9668 55.5845 71.9668C55.1526 71.9668 54.7154 71.9762 54.2728 71.995C54.301 71.3808 54.3278 70.7665 54.352 70.1563C54.3761 69.5461 54.3882 68.9238 54.3882 68.2881V65.8084C54.3882 65.174 54.3761 64.549 54.352 63.9335Z" fill="white"/>
<path d="M74.9612 71.6571C74.7734 71.7482 74.5481 71.8301 74.2839 71.9011C74.0197 71.9736 73.7233 72.0393 73.3961 72.0969C73.0702 72.1546 72.7282 72.1828 72.3728 72.1828C71.6124 72.1828 70.911 72.0741 70.2672 71.8582C69.6222 71.6423 69.0669 71.3124 68.6016 70.8698C68.1349 70.4286 67.7701 69.8868 67.5045 69.2484C67.2403 68.6087 67.1089 67.8804 67.1089 67.0623C67.1089 66.2456 67.2403 65.5174 67.5045 64.8776C67.7701 64.2379 68.1402 63.6974 68.615 63.2549C69.0911 62.8136 69.6611 62.477 70.3249 62.245C70.9888 62.0143 71.7184 61.899 72.5163 61.899C73.152 61.899 73.73 61.9647 74.2544 62.0948C74.7788 62.2235 75.2428 62.3805 75.6465 62.5628C75.5701 62.6983 75.507 62.8807 75.4588 63.1114C75.4105 63.342 75.3729 63.5338 75.3434 63.6881L75.2576 63.7162C75.161 63.6009 75.0269 63.4721 74.8539 63.3273C74.6809 63.1824 74.4784 63.0443 74.2477 62.9089C74.017 62.7747 73.7569 62.6621 73.4685 62.5696C73.1802 62.4784 72.8637 62.4328 72.5163 62.4328C71.949 62.4328 71.4233 62.524 70.9378 62.7077C70.4523 62.8901 70.0285 63.1717 69.6691 63.5513C69.3083 63.9308 69.0267 64.4109 68.8242 64.993C68.623 65.575 68.5224 66.2644 68.5224 67.0623C68.5224 67.8617 68.623 68.551 68.8242 69.133C69.0267 69.7138 69.3083 70.1952 69.6691 70.5748C70.0285 70.9543 70.4523 71.2359 70.9378 71.4183C71.4233 71.6007 71.949 71.6919 72.5163 71.6919C72.8637 71.6919 73.1829 71.649 73.4766 71.5632C73.7689 71.476 74.0385 71.3727 74.2839 71.252C74.5294 71.1327 74.7506 71.0026 74.9478 70.8631C75.1436 70.7236 75.3099 70.6016 75.4454 70.4956L75.503 70.5533L75.3729 71.4036C75.2858 71.4814 75.149 71.5645 74.9612 71.6571Z" fill="white"/>
<path d="M78.6533 63.9549C78.6292 63.3447 78.6024 62.7211 78.5742 62.0867C78.6989 62.1068 78.8196 62.1229 78.935 62.1377C79.0503 62.1524 79.1657 62.1592 79.281 62.1592C79.3963 62.1592 79.5117 62.1524 79.627 62.1377C79.7423 62.1229 79.863 62.1068 79.9878 62.0867C79.9583 62.7211 79.9314 63.3447 79.9086 63.9549C79.8845 64.5651 79.8724 65.1874 79.8724 65.8218V68.3029C79.8724 68.9372 79.8845 69.5635 79.9086 70.1778C79.9314 70.7934 79.9583 71.3995 79.9878 71.995C79.7665 71.9762 79.5304 71.9668 79.281 71.9668C79.0302 71.9668 78.7955 71.9762 78.5742 71.995C78.6024 71.3995 78.6292 70.7934 78.6533 70.1778C78.6775 69.5635 78.6896 68.9372 78.6896 68.3029V65.8218C78.6896 65.1874 78.6775 64.5651 78.6533 63.9549Z" fill="white"/>
<path d="M85.8136 62.8364C85.5642 62.8364 85.3026 62.8391 85.0277 62.8445C84.7541 62.8485 84.4805 62.8592 84.2056 62.8726C83.932 62.8874 83.6678 62.9048 83.413 62.9236C83.1582 62.9424 82.9302 62.9665 82.7277 62.996C82.7759 62.823 82.8001 62.6688 82.8001 62.5347C82.8001 62.4287 82.7759 62.2799 82.7277 62.0867C83.362 62.1068 83.983 62.1229 84.5878 62.1377C85.194 62.1524 85.8136 62.1592 86.4493 62.1592C87.0837 62.1592 87.7033 62.1524 88.3094 62.1377C88.9156 62.1229 89.5352 62.1068 90.1696 62.0867C90.1213 62.2799 90.0972 62.4327 90.0972 62.5481C90.0972 62.6741 90.1213 62.823 90.1696 62.996C89.9684 62.9665 89.7391 62.9424 89.4843 62.9236C89.2295 62.9048 88.9653 62.8874 88.6917 62.8726C88.4181 62.8592 88.1431 62.8485 87.8696 62.8445C87.596 62.8391 87.3331 62.8364 87.0837 62.8364C87.0541 63.8275 87.0407 64.8226 87.0407 65.8218V68.3029C87.0407 68.9372 87.0515 69.5635 87.0756 70.1778C87.0997 70.7934 87.1266 71.3995 87.1561 71.995C86.9348 71.9762 86.6987 71.9668 86.4493 71.9668C86.1985 71.9668 85.9638 71.9762 85.7425 71.995C85.7707 71.3995 85.7975 70.7934 85.8216 70.1778C85.8458 69.5635 85.8579 68.9372 85.8579 68.3029V65.8218C85.8579 64.8226 85.8431 63.8275 85.8136 62.8364Z" fill="white"/>
<path d="M95.4348 67.9421C95.3382 67.7798 95.1961 67.5411 95.0097 67.2286C94.8219 66.9161 94.6154 66.5701 94.3887 66.1906C94.1634 65.8111 93.9247 65.4114 93.6752 64.993C93.4244 64.5745 93.1871 64.1762 92.9617 63.7967C92.7351 63.4158 92.5312 63.0751 92.3475 62.772C92.1651 62.469 92.0256 62.241 91.9304 62.0867C92.0645 62.1068 92.1973 62.1229 92.3261 62.1377C92.4561 62.1524 92.5889 62.1592 92.723 62.1592C92.8571 62.1592 92.9899 62.1524 93.12 62.1377C93.2501 62.1229 93.3815 62.1068 93.517 62.0867C93.9488 62.9236 94.3887 63.7457 94.8366 64.5531C95.2832 65.3604 95.7567 66.2027 96.2569 67.0771C96.4782 66.7311 96.7089 66.3515 96.9489 65.9385C97.189 65.524 97.4291 65.1016 97.6705 64.6684C97.9105 64.2366 98.1412 63.8007 98.3625 63.3635C98.5838 62.9263 98.7903 62.5011 98.9821 62.0867C99.2221 62.135 99.4099 62.1592 99.5454 62.1592C99.6795 62.1592 99.8672 62.135 100.107 62.0867C99.6459 62.7895 99.2329 63.4238 98.8667 63.9911C98.502 64.5584 98.1801 65.0721 97.9011 65.5334C97.6222 65.9961 97.3768 66.4119 97.1649 66.782C96.9543 67.1522 96.7706 67.4861 96.6177 67.7839C96.6177 68.1393 96.619 68.5201 96.6244 68.9238C96.6297 69.3275 96.6364 69.7231 96.6458 70.1134C96.6552 70.5023 96.6673 70.8631 96.682 71.1943C96.6968 71.5269 96.7129 71.7938 96.733 71.995C96.5117 71.9762 96.2757 71.9668 96.0262 71.9668C95.7754 71.9668 95.5407 71.9762 95.3195 71.995C95.3771 71.4961 95.4107 70.8899 95.42 70.1778C95.4294 69.467 95.4348 68.7213 95.4348 67.9421Z" fill="white"/>
</svg>
