<svg width="124" height="78" viewBox="0 0 124 78" fill="none" xmlns="http://www.w3.org/2000/svg">
<path d="M61.2606 4.20358L59.7466 3.89871C59.7959 2.62848 59.8483 1.21459 59.9056 0C59.5983 0.047098 59.3043 0.0886644 59.0243 0.123435C58.7411 0.158995 58.4578 0.175116 58.1808 0.175116C57.8984 0.175116 57.6158 0.158995 57.3365 0.123435C57.0556 0.0886644 56.7607 0.047098 56.4552 0C56.5045 1.01482 56.5478 2.16999 56.588 3.26747L53.2456 2.59608V31.5013L61.2606 29.8932L62.0169 30.0506C61.9297 30.4441 61.8233 30.813 61.6959 31.1541C61.3895 31.9751 60.9458 32.6157 60.3609 33.0718C59.7758 33.5317 58.9895 33.7593 58.0033 33.7593L58.2879 34.7425C59.3183 34.7425 60.2721 34.5496 61.1518 34.163C62.0332 33.774 62.7871 33.2416 63.4207 32.564C63.9585 31.9853 64.3884 31.3355 64.7141 30.6155L68.9754 31.5069V2.58755L61.2606 4.20358ZM61.2684 28.4276L54.6834 29.7465V4.34788L56.6443 4.73983C56.6466 4.79768 56.6496 4.8571 56.6504 4.91274C56.7106 6.40217 56.7384 7.92085 56.7384 9.46734V15.5177C56.7384 17.065 56.7106 18.5906 56.6504 20.0916C56.5918 21.5918 56.5278 23.0665 56.4552 24.5227C57.5819 24.4757 58.6654 24.4526 59.708 24.4526H62.4035V25.908C62.4035 27.2902 62.3596 27.1103 62.2785 28.237C62.2685 28.3706 62.2554 28.5017 62.2431 28.6306L61.2684 28.4276ZM67.5394 29.7419L65.1755 29.2465C65.3183 28.6429 65.3885 27.9993 65.3885 27.3202C65.3885 26.4767 65.3824 26.9877 65.373 25.9766C65.3593 24.9711 65.3508 23.9201 65.3331 22.8304C65.3261 21.74 65.3122 20.6302 65.3005 19.5051C65.2897 18.3829 65.2836 17.2888 65.2836 16.2354C65.2836 14.6873 65.3122 13.1685 65.373 11.6814C65.431 10.1928 65.4981 9.03208 65.563 7.48638C65.2597 7.5311 64.9672 7.57362 64.6871 7.6076C64.4047 7.64221 64.1245 7.66007 63.842 7.66007C63.562 7.66007 63.2772 7.64221 62.9955 7.6076C62.7185 7.57362 62.4244 7.5311 62.1203 7.48638C62.1882 9.03208 62.253 10.1928 62.3132 11.6814C62.3703 13.1685 62.4035 14.6873 62.4035 16.2354V22.957C61.5315 22.9677 60.6417 22.9755 59.7295 22.9755C59.7056 21.263 59.681 19.3238 59.6593 17.1536C59.6331 14.9851 59.6215 12.4238 59.6215 9.46734C59.6215 8.0721 59.6454 6.7023 59.6941 5.35258L61.2684 5.66741L67.5394 4.35483V29.7419Z" fill="#534741"/>
<path d="M25.0576 46.5697C25.04 46.1254 25.0205 45.6713 25 45.2094C25.0908 45.224 25.1787 45.2357 25.2627 45.2465C25.3467 45.2572 25.4307 45.2621 25.5146 45.2621C25.5986 45.2621 25.6826 45.2572 25.7666 45.2465C25.8506 45.2357 25.9385 45.224 26.0293 45.2094C26.0078 45.6713 25.9883 46.1254 25.9717 46.5697C25.9541 47.014 25.9453 47.4672 25.9453 47.9291C25.9453 48.8119 25.9482 49.5765 25.9551 50.224C25.9629 50.8715 25.9697 51.4515 25.9766 51.9623C26.4736 51.9623 26.9492 51.9574 27.4053 51.9467C27.8604 51.9359 28.3496 51.8959 28.875 51.8256C28.8398 51.9515 28.8223 52.057 28.8223 52.141C28.8223 52.2181 28.8398 52.3129 28.875 52.4242C28.5527 52.4105 28.2305 52.4037 27.9092 52.4037C27.5869 52.4037 27.2646 52.4037 26.9424 52.4037C26.6064 52.4037 26.2832 52.4037 25.9717 52.4037C25.6602 52.4037 25.3359 52.4105 25 52.4242C25.0205 51.9906 25.04 51.5492 25.0576 51.101C25.0752 50.6537 25.084 50.1976 25.084 49.7357V47.9291C25.084 47.4672 25.0752 47.014 25.0576 46.5697Z" fill="#534741"/>
<path d="M30.5127 50.0931C30.5127 49.2318 30.7178 48.556 31.1279 48.0658C31.5371 47.5765 32.1338 47.3314 32.918 47.3314C33.2891 47.3314 33.6094 47.389 33.8789 47.5043C34.1484 47.6195 34.374 47.7738 34.5566 47.9662C34.7383 48.1586 34.873 48.3851 34.9609 48.6439C35.0479 48.9027 35.0918 49.1791 35.0918 49.473C35.0918 49.5433 35.0898 49.6117 35.0869 49.6781C35.083 49.7445 35.0781 49.8129 35.0713 49.8832C34.6934 49.8763 34.3184 49.8685 33.9473 49.8617C33.5762 49.8549 33.2012 49.851 32.8232 49.851C32.5928 49.851 32.3633 49.8549 32.1357 49.8617C31.9082 49.8685 31.6787 49.8763 31.4482 49.8832C31.4404 49.9183 31.4375 49.9701 31.4375 50.0404V50.1771C31.4375 50.4496 31.4775 50.7054 31.5576 50.9437C31.6387 51.182 31.7559 51.3861 31.9102 51.558C32.0635 51.7299 32.2529 51.8666 32.4766 51.9672C32.7012 52.0687 32.96 52.1195 33.2539 52.1195C33.3945 52.1195 33.5381 52.101 33.6846 52.0619C33.832 52.0238 33.9756 51.9711 34.1152 51.9047C34.2549 51.8383 34.3867 51.7592 34.5088 51.6683C34.6318 51.5775 34.7383 51.4789 34.8291 51.3744L34.8818 51.4056L34.8193 51.9203C34.6094 52.0883 34.3477 52.2318 34.0361 52.351C33.7246 52.4701 33.4014 52.5297 33.0654 52.5297C32.6865 52.5297 32.3418 52.472 32.0303 52.3558C31.7188 52.2406 31.4492 52.0726 31.2217 51.8519C30.9941 51.6312 30.8193 51.3705 30.6973 51.0697C30.5742 50.7689 30.5127 50.4427 30.5127 50.0931ZM32.9395 47.6674C32.6797 47.6674 32.4609 47.7269 32.2822 47.8451C32.1045 47.9642 31.957 48.1136 31.8418 48.2924C31.7256 48.4701 31.6387 48.6664 31.5791 48.8802C31.5195 49.0941 31.4824 49.2953 31.4688 49.4838C31.6855 49.4906 31.9111 49.4984 32.1465 49.5052C32.3809 49.5121 32.6104 49.515 32.834 49.515C33.0654 49.515 33.2998 49.5121 33.5381 49.5052C33.7754 49.4984 34.0068 49.4906 34.2305 49.4838C34.2305 49.2953 34.2148 49.0951 34.1836 48.8851C34.1523 48.6752 34.0889 48.4789 33.9941 48.2972C33.9004 48.1156 33.7686 47.9642 33.6006 47.8451C33.4326 47.7269 33.2119 47.6674 32.9395 47.6674Z" fill="#534741"/>
<path d="M41.8867 53.3851C42.0615 53.2484 42.1953 53.058 42.2861 52.8129C42.377 52.5677 42.4346 52.2777 42.459 51.9418C42.4834 51.6049 42.4961 51.2308 42.4961 50.8177V47.9291C42.4961 47.4672 42.4873 47.014 42.4697 46.5697C42.4521 46.1254 42.4326 45.6713 42.4121 45.2094C42.5029 45.224 42.5908 45.2357 42.6748 45.2465C42.7588 45.2572 42.8428 45.2621 42.9268 45.2621C43.0107 45.2621 43.0947 45.2572 43.1787 45.2465C43.2627 45.2357 43.3506 45.224 43.4414 45.2094C43.4199 45.6713 43.4004 46.1254 43.3838 46.5697C43.3662 47.014 43.3574 47.4672 43.3574 47.9291C43.3574 48.2445 43.3584 48.5697 43.3623 48.9066C43.3662 49.2426 43.3691 49.5736 43.373 49.8988C43.376 50.224 43.3799 50.5375 43.3838 50.8383C43.3867 51.14 43.3887 51.4164 43.3887 51.6683C43.3887 51.9838 43.3379 52.2719 43.2363 52.5345C43.1348 52.7972 42.9893 53.0297 42.8008 53.2328C42.6113 53.4359 42.3857 53.5951 42.123 53.7113C41.8604 53.8265 41.5752 53.8842 41.2676 53.8842L41.1836 53.5902C41.4775 53.5902 41.7119 53.5219 41.8867 53.3851Z" fill="#534741"/>
<path d="M52.7041 52.4242C52.6064 52.4105 52.5137 52.4037 52.4258 52.4037C52.3379 52.4037 52.2461 52.4037 52.1475 52.4037C52.0498 52.4037 51.957 52.4037 51.8691 52.4037C51.7813 52.4037 51.6895 52.4105 51.5908 52.4242C51.542 52.2631 51.4756 52.0687 51.3916 51.8412C51.3076 51.6146 51.2148 51.3763 51.1133 51.1273C51.0117 50.8793 50.9082 50.6273 50.8037 50.3715C50.6982 50.1156 50.6006 49.8724 50.5098 49.641C50.2852 49.6342 50.0576 49.6293 49.8271 49.6254C49.5957 49.6224 49.3643 49.6205 49.1338 49.6205C48.916 49.6205 48.7031 49.6224 48.4932 49.6254C48.2832 49.6293 48.0693 49.6342 47.8525 49.641C47.6279 50.1879 47.4248 50.7074 47.2432 51.2006C47.0615 51.6947 46.9248 52.1029 46.834 52.4242C46.7148 52.4105 46.585 52.4037 46.4453 52.4037C46.3047 52.4037 46.1758 52.4105 46.0566 52.4242C46.624 51.1996 47.1768 49.9808 47.7158 48.7699C48.2549 47.559 48.7979 46.3265 49.3438 45.0726H49.543C49.7109 45.4789 49.8936 45.9183 50.0889 46.391C50.2852 46.8636 50.4844 47.3412 50.6875 47.8246C50.8906 48.308 51.0938 48.7875 51.2969 49.2631C51.5 49.7396 51.6904 50.182 51.8691 50.5922C52.0479 51.0013 52.209 51.3676 52.3525 51.6888C52.4961 52.0111 52.6133 52.2562 52.7041 52.4242ZM48.0518 49.1586C48.2334 49.1586 48.4229 49.1615 48.6191 49.1683C48.8145 49.1761 49.0039 49.1791 49.1865 49.1791C49.3818 49.1791 49.5781 49.1781 49.7744 49.1742C49.9697 49.1703 50.166 49.1654 50.3623 49.1586L49.1963 46.4906L48.0518 49.1586Z" fill="#534741"/>
<path d="M55.5928 47.9291C55.5928 47.4672 55.584 47.014 55.5664 46.5697C55.5488 46.1254 55.5293 45.6713 55.5088 45.2094C55.7744 45.224 56.0391 45.2357 56.3018 45.2465C56.5645 45.2572 56.8281 45.2621 57.0947 45.2621C57.3604 45.2621 57.625 45.2533 57.8877 45.2357C58.1504 45.2181 58.4141 45.2094 58.6807 45.2094C59.2959 45.2094 59.8232 45.2904 60.2607 45.4515C60.6982 45.6127 61.0576 45.8412 61.3369 46.139C61.6172 46.4369 61.8223 46.8002 61.9521 47.2308C62.0811 47.6615 62.1455 48.1469 62.1455 48.6859C62.1455 49.3861 62.0254 49.976 61.7832 50.4554C61.542 50.9349 61.2344 51.3217 60.8594 51.6156C60.4844 51.9095 60.0723 52.1185 59.6201 52.2406C59.1689 52.3636 58.7363 52.4242 58.3232 52.4242C58.085 52.4242 57.8506 52.4213 57.6191 52.4144C57.3887 52.4066 57.1543 52.4037 56.916 52.4037C56.6777 52.4037 56.4434 52.4037 56.2119 52.4037C55.9814 52.4037 55.7471 52.4105 55.5088 52.4242C55.5293 51.9906 55.5488 51.5492 55.5664 51.101C55.584 50.6537 55.5928 50.1976 55.5928 49.7357V47.9291V47.9291ZM56.4541 49.7357C56.4541 50.4926 56.4746 51.2347 56.5166 51.9623C56.6641 51.9974 56.8633 52.0238 57.1152 52.0414C57.3672 52.059 57.627 52.0677 57.8926 52.0677C58.2773 52.0677 58.6631 52.0219 59.0479 51.931C59.4326 51.8402 59.7773 51.6683 60.082 51.4164C60.3867 51.1644 60.6357 50.8197 60.8281 50.3822C61.0205 49.9447 61.1172 49.3793 61.1172 48.6859C61.1172 48.0765 61.041 47.5765 60.8906 47.184C60.7402 46.7924 60.5342 46.4818 60.2715 46.2543C60.0088 46.0267 59.6953 45.8695 59.3311 45.7816C58.9678 45.6947 58.5684 45.6508 58.1338 45.6508C57.8193 45.6508 57.5254 45.6615 57.252 45.682C56.9785 45.7035 56.7334 45.7279 56.5166 45.7552C56.4961 46.0922 56.4805 46.4437 56.4697 46.8109C56.459 47.1791 56.4541 47.5511 56.4541 47.9291V49.7357V49.7357Z" fill="#534741"/>
<path d="M64.5771 46.5541C64.5596 46.1058 64.54 45.6576 64.5195 45.2094C64.834 45.224 65.1475 45.2357 65.459 45.2465C65.7705 45.2572 66.084 45.2621 66.3994 45.2621C66.7139 45.2621 67.0254 45.2572 67.334 45.2465C67.6416 45.2357 67.9531 45.224 68.2686 45.2094C68.248 45.3148 68.2373 45.4193 68.2373 45.5248C68.2373 45.6293 68.248 45.7347 68.2686 45.8392C68.0449 45.8256 67.8398 45.8119 67.6543 45.7972C67.4687 45.7836 67.2725 45.7699 67.0664 45.7552C66.8594 45.7416 66.6338 45.7299 66.3887 45.7191C66.1436 45.7084 65.8496 45.7035 65.5068 45.7035C65.5 45.9271 65.4912 46.141 65.4805 46.3441C65.4697 46.5472 65.4648 46.7777 65.4648 47.0365C65.4648 47.3099 65.4658 47.5765 65.4697 47.8353C65.4736 48.0941 65.4746 48.2904 65.4746 48.4232C65.7832 48.4232 66.0596 48.4193 66.3047 48.4125C66.5498 48.4056 66.7734 48.3969 66.9766 48.3861C67.1797 48.3763 67.3672 48.3656 67.5391 48.3549C67.71 48.3441 67.873 48.3324 68.0273 48.3177C68.0059 48.4232 67.9951 48.5316 67.9951 48.6439C67.9951 48.7484 68.0059 48.8539 68.0273 48.9584C67.8447 48.9379 67.6328 48.9203 67.3916 48.9066C67.1504 48.892 66.9082 48.8832 66.667 48.8802C66.4258 48.8763 66.1982 48.8734 65.9844 48.8695C65.7705 48.8656 65.6016 48.8646 65.4746 48.8646C65.4746 48.9271 65.4736 48.9955 65.4697 49.0687C65.4658 49.1429 65.4648 49.2357 65.4648 49.347V49.7572V50.3871C65.4648 50.7865 65.4658 51.1156 65.4697 51.3744C65.4736 51.6332 65.4785 51.8295 65.4854 51.9623C65.7168 51.9623 65.9619 51.9623 66.2207 51.9623C66.4863 51.9623 66.7471 51.9574 67.0029 51.9467C67.2588 51.9359 67.5 51.9222 67.7275 51.9047C67.9551 51.8871 68.1533 51.8607 68.3213 51.8256C68.3066 51.8754 68.2988 51.9291 68.2949 51.9886C68.291 52.0482 68.29 52.1029 68.29 52.1517C68.29 52.2631 68.2998 52.3549 68.3213 52.4242C68.0059 52.4105 67.6924 52.4037 67.3809 52.4037C67.0693 52.4037 66.7529 52.4037 66.4307 52.4037C66.1084 52.4037 65.79 52.4037 65.4746 52.4037C65.1602 52.4037 64.8418 52.4105 64.5195 52.4242C64.54 51.9769 64.5596 51.5297 64.5771 51.0853C64.5947 50.641 64.6035 50.1879 64.6035 49.725V47.9193C64.6035 47.4574 64.5947 47.0023 64.5771 46.5541Z" fill="#534741"/>
<path d="M79.584 52.1781C79.4473 52.2445 79.2832 52.3041 79.0908 52.3558C78.8984 52.4086 78.6826 52.4564 78.4443 52.4984C78.207 52.5404 77.958 52.5609 77.6992 52.5609C77.1455 52.5609 76.6348 52.4818 76.166 52.3246C75.6963 52.1674 75.292 51.9271 74.9531 51.6049C74.6133 51.2836 74.3477 50.889 74.1543 50.4242C73.9619 49.9584 73.8662 49.4281 73.8662 48.8324C73.8662 48.2377 73.9619 47.7074 74.1543 47.2416C74.3477 46.7758 74.6172 46.3822 74.9629 46.0599C75.3096 45.7386 75.7246 45.4935 76.208 45.3246C76.6914 45.1566 77.2227 45.0726 77.8037 45.0726C78.2666 45.0726 78.6875 45.1205 79.0693 45.2152C79.4512 45.309 79.7891 45.4232 80.083 45.556C80.0273 45.6547 79.9814 45.7875 79.9463 45.9554C79.9111 46.1234 79.8838 46.2631 79.8623 46.3754L79.7998 46.3959C79.7295 46.3119 79.6318 46.2181 79.5059 46.1127C79.3799 46.0072 79.2324 45.9066 79.0645 45.808C78.8965 45.7103 78.707 45.6283 78.4971 45.5609C78.2871 45.4945 78.0566 45.4613 77.8037 45.4613C77.3906 45.4613 77.0078 45.5277 76.6543 45.6615C76.3008 45.7943 75.9922 45.9994 75.7305 46.2758C75.4678 46.5521 75.2627 46.9017 75.1152 47.3256C74.9687 47.7494 74.8955 48.2513 74.8955 48.8324C74.8955 49.4144 74.9687 49.9164 75.1152 50.3402C75.2627 50.7631 75.4678 51.1136 75.7305 51.39C75.9922 51.6664 76.3008 51.8715 76.6543 52.0043C77.0078 52.1371 77.3906 52.2035 77.8037 52.2035C78.0566 52.2035 78.2891 52.1722 78.5029 52.1097C78.7158 52.0463 78.9121 51.9711 79.0908 51.8832C79.2695 51.7963 79.4307 51.7015 79.5742 51.6C79.7168 51.4984 79.8379 51.4095 79.9365 51.3324L79.9785 51.3744L79.8838 51.9935C79.8203 52.0502 79.7207 52.1107 79.584 52.1781Z" fill="#534741"/>
<path d="M82.2725 46.5697C82.2549 46.1254 82.2354 45.6713 82.2148 45.2094C82.3057 45.224 82.3936 45.2357 82.4775 45.2465C82.5615 45.2572 82.6455 45.2621 82.7295 45.2621C82.8135 45.2621 82.8975 45.2572 82.9814 45.2465C83.0654 45.2357 83.1533 45.224 83.2441 45.2094C83.2227 45.6713 83.2031 46.1254 83.1865 46.5697C83.1689 47.014 83.1602 47.4672 83.1602 47.9291V49.7357C83.1602 50.1976 83.1689 50.6537 83.1865 51.101C83.2031 51.5492 83.2227 51.9906 83.2441 52.4242C83.083 52.4105 82.9111 52.4037 82.7295 52.4037C82.5469 52.4037 82.376 52.4105 82.2148 52.4242C82.2354 51.9906 82.2549 51.5492 82.2725 51.101C82.29 50.6537 82.2988 50.1976 82.2988 49.7357V47.9291C82.2988 47.4672 82.29 47.014 82.2725 46.5697Z" fill="#534741"/>
<path d="M87.4863 45.7552C87.3047 45.7552 87.1143 45.7572 86.9141 45.7611C86.7148 45.764 86.5156 45.7719 86.3154 45.7816C86.1162 45.7924 85.9238 45.8051 85.7383 45.8187C85.5527 45.8324 85.3867 45.85 85.2393 45.8715C85.2744 45.7455 85.292 45.6332 85.292 45.5355C85.292 45.4584 85.2744 45.35 85.2393 45.2094C85.7012 45.224 86.1533 45.2357 86.5938 45.2465C87.0352 45.2572 87.4863 45.2621 87.9492 45.2621C88.4111 45.2621 88.8623 45.2572 89.3037 45.2465C89.7451 45.2357 90.1963 45.224 90.6582 45.2094C90.623 45.35 90.6055 45.4613 90.6055 45.5453C90.6055 45.6371 90.623 45.7455 90.6582 45.8715C90.5117 45.85 90.3447 45.8324 90.1592 45.8187C89.9736 45.8051 89.7812 45.7924 89.582 45.7816C89.3828 45.7719 89.1826 45.764 88.9834 45.7611C88.7842 45.7572 88.5928 45.7552 88.4111 45.7552C88.3896 46.4769 88.3799 47.2015 88.3799 47.9291V49.7357C88.3799 50.1976 88.3877 50.6537 88.4053 51.101C88.4229 51.5492 88.4424 51.9906 88.4639 52.4242C88.3027 52.4105 88.1309 52.4037 87.9492 52.4037C87.7666 52.4037 87.5957 52.4105 87.4346 52.4242C87.4551 51.9906 87.4746 51.5492 87.4922 51.101C87.5098 50.6537 87.5186 50.1976 87.5186 49.7357V47.9291C87.5186 47.2015 87.5078 46.4769 87.4863 45.7552Z" fill="#534741"/>
<path d="M94.4922 49.473C94.4219 49.3549 94.3184 49.181 94.1826 48.9535C94.0459 48.726 93.8955 48.474 93.7305 48.1976C93.5664 47.9213 93.3926 47.6302 93.2109 47.3256C93.0283 47.0209 92.8555 46.7308 92.6914 46.4545C92.5264 46.1771 92.3779 45.9291 92.2441 45.7084C92.1113 45.4877 92.0098 45.3217 91.9404 45.2094C92.0381 45.224 92.1348 45.2357 92.2285 45.2465C92.3232 45.2572 92.4199 45.2621 92.5176 45.2621C92.6152 45.2621 92.7119 45.2572 92.8066 45.2465C92.9014 45.2357 92.9971 45.224 93.0957 45.2094C93.4102 45.8187 93.7305 46.4174 94.0566 47.0052C94.3818 47.5931 94.7266 48.2064 95.0908 48.8431C95.252 48.5912 95.4199 48.3148 95.5947 48.014C95.7695 47.7123 95.9443 47.4047 96.1201 47.0892C96.2949 46.7748 96.4629 46.4574 96.624 46.139C96.7852 45.8207 96.9355 45.5111 97.0752 45.2094C97.25 45.2445 97.3867 45.2621 97.4854 45.2621C97.583 45.2621 97.7197 45.2445 97.8945 45.2094C97.5586 45.7211 97.2578 46.183 96.9912 46.5961C96.7256 47.0092 96.4912 47.3832 96.2881 47.7191C96.085 48.056 95.9063 48.3588 95.752 48.6283C95.5986 48.8978 95.4648 49.141 95.3535 49.3578C95.3535 49.6166 95.3545 49.8939 95.3584 50.1879C95.3623 50.4818 95.3672 50.7699 95.374 51.0541C95.3809 51.3373 95.3896 51.6 95.4004 51.8412C95.4111 52.0834 95.4229 52.2777 95.4375 52.4242C95.2764 52.4105 95.1045 52.4037 94.9229 52.4037C94.7402 52.4037 94.5693 52.4105 94.4082 52.4242C94.4502 52.0609 94.4746 51.6195 94.4814 51.101C94.4883 50.5834 94.4922 50.0404 94.4922 49.473Z" fill="#534741"/>
<path d="M2.62305 75.2769C2.35547 75.438 2.28809 75.5044 2.00781 75.7993C1.90039 75.9058 1.84668 75.9194 1.78027 75.9194C1.44531 75.9194 0.84375 74.7554 0.84375 74.6353C0.84375 74.5415 1.05762 74.1265 1.08398 74.0464C1.20508 73.6313 1.20508 71.3164 1.20508 70.6338C1.20508 70.1255 1.20508 67.6362 1.09766 67.3418C1.00391 67.1011 0.762695 66.9941 0 66.8066C0.375 66.5659 0.642578 66.4185 0.936523 66.4185C1.33887 66.4185 2.46289 66.8066 2.46289 67.1548C2.46289 67.2749 2.26172 67.7837 2.23535 67.8906C2.11426 68.5195 1.99414 73.0688 2.02051 74.3003C3.69336 73.7515 6.77148 71.8252 9.05957 69.4429L9.15332 69.5234C7.22656 72.6411 5.44629 73.6577 2.62305 75.2769Z" fill="#534741"/>
<path d="M12.6992 72.2397C12.1104 72.2397 11.6279 71.7583 11.6279 71.1694C11.6279 70.5669 12.1104 70.0986 12.6992 70.0986C13.2744 70.0986 13.7695 70.5537 13.7695 71.1694C13.7695 71.7715 13.2744 72.2397 12.6992 72.2397Z" fill="#534741"/>
<path d="M20.0449 71.1289C19.9111 71.1289 19.8047 71.062 18.9482 70.4868C18.2656 70.0317 17.5693 69.751 16.874 69.4829C17.1553 69.4429 17.4355 69.4028 17.8779 69.4028C18.0117 69.4028 19.1621 69.4028 19.7373 69.7241C20.3662 70.0718 20.4199 70.5806 20.4199 70.6875C20.4199 70.9951 20.1924 71.1289 20.0449 71.1289ZM20.4062 75.5044C20.1924 75.6519 20.166 75.6792 19.9385 75.9331C19.8311 76.0669 19.7246 76.187 19.5371 76.187C19.1758 76.187 18.2656 75.2905 18.2656 74.4077C18.2656 74.3003 18.2793 74.2202 18.3057 74.0591C18.4395 74.2065 18.9746 74.8491 19.3496 74.8491C19.5098 74.8491 19.6572 74.7954 19.8184 74.7017C21.999 73.4575 24.3408 71.4771 26.6699 68.707L26.7627 68.7739C25.1572 71.7715 23.1904 73.6313 20.4062 75.5044ZM21.21 68.1982C21.0361 68.1982 20.9688 68.145 20.3262 67.6099C19.4697 66.9004 18.8008 66.5928 18.3057 66.3652C18.5596 66.3252 18.667 66.3115 18.9209 66.3115C19.002 66.3115 21.5713 66.3384 21.5713 67.7568C21.5713 68.1313 21.3037 68.1982 21.21 68.1982ZM25.9473 68.2788C25.7861 68.2788 25.7725 68.2651 25.2773 67.7168C24.876 67.2749 24.4346 66.8872 23.9395 66.5791C24.7822 66.5928 26.2676 66.9673 26.2676 67.8638C26.2676 68.1582 26.0811 68.2788 25.9473 68.2788ZM27.084 67.0474C26.9375 67.0474 26.8965 66.9941 26.4551 66.5659C26.04 66.1646 25.5586 65.8301 24.9971 65.5757C25.1709 65.562 25.2646 65.5488 25.3848 65.5488C25.9199 65.5488 27.4326 65.7764 27.4326 66.6597C27.4326 66.9272 27.2314 67.0474 27.084 67.0474Z" fill="#534741"/>
<path d="M38.0825 75.2642C37.9624 75.2642 37.3872 75.103 37.3335 75.0903C36.4907 74.9155 35.6206 74.8892 34.9917 74.8892C34.6167 74.8892 31.1909 74.9155 30.4155 75.5181C30.3618 75.5581 30.2944 75.5854 30.2407 75.5854C29.9604 75.5854 29.2642 74.9155 29.2642 74.3677C29.2642 74.1929 29.2915 74.0728 29.3179 73.9526C29.5991 74.354 29.9204 74.7017 30.4419 74.7017C30.7632 74.7017 32.8511 74.4741 33.3188 74.4478C33.3462 74.0063 33.3989 73.0825 33.3989 72.3604C33.3989 71.3701 33.3462 71.2495 33.1187 70.875C32.5298 70.9551 32.1685 71.0088 32.1011 71.022C32.021 71.0356 31.7134 71.0889 31.6597 71.0889C31.3247 71.0889 30.7495 70.5 30.7632 70.0586C31.231 70.3931 31.6333 70.4331 32.1411 70.4331C33.4927 70.4331 35.0181 70.2192 35.1519 70.1924C35.2456 70.1655 35.647 69.978 35.728 69.978C35.7944 69.978 36.5972 70.0986 36.5972 70.4468C36.5972 70.6875 36.3169 70.7275 36.1694 70.7275C35.2056 70.7275 35.0991 70.7275 34.0952 70.8081C34.229 70.9419 34.3091 71.022 34.3091 71.1157C34.3091 71.1694 34.2153 71.4639 34.189 71.5171C34.1616 71.5708 33.9878 73.9253 33.9614 74.4077C34.3892 74.3804 36.3296 74.3276 36.7183 74.3003C36.7847 74.3003 37.106 74.2065 37.1597 74.2065C37.2671 74.2065 38.3237 74.5679 38.3237 74.9966C38.3237 75.0767 38.2837 75.2642 38.0825 75.2642Z" fill="#534741"/>
<path d="M48.145 67.1816C48.0249 67.2485 47.9038 67.3555 47.6362 67.5962C47.5562 67.6768 46.0171 69.2959 45.7095 69.6167C45.9233 69.7241 46.3784 70.0049 46.3784 70.1924C46.3784 70.2725 46.2583 70.6206 46.2183 70.6875C46.1909 70.7412 46.1782 71.7983 46.1782 72.0659C46.1782 72.668 46.2319 75.3179 46.2319 75.853C46.2319 76.1333 46.1909 76.6821 45.8169 76.6821C45.3755 76.6821 45.1079 75.9468 45.1079 75.6655C45.1079 75.5444 45.2417 75.0229 45.2544 74.9155C45.3481 74.2202 45.4019 73.2437 45.4019 72.521C45.4019 72.0659 45.3481 70.6074 45.2944 70.3931C45.2681 70.2993 45.228 70.2192 45.1343 70.1523C44.2778 70.9551 42.5913 72.4004 40.4106 73.2437L40.3569 73.1763C43.4614 71.1157 46.9946 67.061 46.9946 66.4854C46.9946 66.1646 46.8472 66.0571 46.312 65.6694C46.4722 65.6289 46.6333 65.5889 46.8472 65.5889C47.6362 65.5889 48.5063 66.4854 48.5063 66.8335C48.5063 66.9404 48.48 66.9673 48.145 67.1816Z" fill="#534741"/>
<path d="M57.7261 72.6548C57.4985 72.6548 57.4321 72.5742 56.8159 71.8784C56.2271 71.2227 55.2104 70.4468 54.2866 70.0454C54.2739 70.1523 54.2739 72.2397 54.2866 72.4805C54.2866 72.6411 54.3677 75.0093 54.3677 75.6255C54.3677 75.853 54.3677 76.6694 53.8589 76.6694C53.4702 76.6694 53.2163 76.0132 53.2163 75.5044C53.2163 75.2905 53.2837 74.9028 53.3101 74.729C53.4302 74.0464 53.4702 70.2192 53.4702 68.3589C53.4702 66.5522 53.4175 66.2847 52.2798 66.0308C52.4536 65.9102 52.7485 65.7095 53.1763 65.7095C53.7651 65.7095 54.6753 66.084 54.6753 66.3784C54.6753 66.4453 54.4878 67.0474 54.4614 67.1279C54.354 67.4624 54.3003 68.9614 54.2866 69.7642C55.2241 69.9648 56.2808 70.2593 57.1646 70.7676C57.6724 71.062 58.1812 71.5977 58.1812 72.106C58.1812 72.3604 58.021 72.6548 57.7261 72.6548ZM58.7837 69.0146C58.5825 69.0146 58.5288 68.9478 57.9937 68.4126C57.4849 67.9038 56.896 67.5693 56.6021 67.4087C57.606 67.3286 59.0913 67.7837 59.0913 68.6265C59.0913 68.9077 58.9175 69.0146 58.7837 69.0146ZM59.9741 67.9038C59.814 67.9038 59.4253 67.5693 59.1714 67.3555C58.73 66.9673 58.0737 66.6196 57.8198 66.4854C58.021 66.459 58.0737 66.459 58.2075 66.459C58.2612 66.459 60.2417 66.459 60.2417 67.5161C60.2417 67.73 60.1353 67.9038 59.9741 67.9038Z" fill="#534741"/>
<path d="M65.5269 71.0757C65.3394 71.0757 65.2183 70.9819 64.8843 70.7412C63.5991 69.8442 62.9438 69.6167 62.3413 69.416C62.7026 69.3628 63.0103 69.3228 63.479 69.3228C65.0981 69.3228 65.8872 69.938 65.8872 70.5938C65.8872 70.9019 65.7407 71.0757 65.5269 71.0757ZM66.5972 68.145C66.4497 68.145 66.3022 68.0381 66.1147 67.8638C64.8169 66.6865 64.0679 66.459 63.6792 66.3384C63.9741 66.2983 64.2017 66.2715 64.5229 66.2715C66.2358 66.2715 67.0122 67.0342 67.0122 67.6362C67.0122 67.8369 66.9185 68.145 66.5972 68.145ZM66.2896 75.1304C65.7808 75.5044 65.7271 75.5581 65.3794 75.9058C65.2856 76.0132 65.1519 76.1069 65.0317 76.1069C64.7505 76.1069 63.7329 75.3706 63.7329 74.3003C63.7329 74.1929 63.7466 74.1128 63.7729 73.9927C64.0405 74.3403 64.6294 74.769 64.8306 74.769C65.687 74.769 69.8755 71.3701 72.0435 68.6133L72.1235 68.667C71.6685 69.8179 70.1294 72.3735 66.2896 75.1304Z" fill="#534741"/>
<path d="M84.3276 70.313C84.3013 70.313 83.2573 70.1924 82.936 70.1523C82.4272 70.0986 81.9595 70.0718 81.5981 70.0718C81.1831 70.0718 80.8755 70.0986 79.9517 70.1655C80.0591 70.2324 80.4604 70.5405 80.5405 70.6074C80.5806 70.6475 80.6206 70.7007 80.6206 70.7676C80.6206 70.8345 80.3804 71.1958 80.3403 71.2627C80.2866 71.3564 80.2593 71.4902 80.2466 71.5571C79.604 73.7388 78.3188 75.9995 76.0581 76.6821L76.0171 76.6157C78.1187 75.0366 79.3228 71.8115 79.3228 70.8613C79.3228 70.5405 79.2153 70.4199 79.0688 70.2593C77.0884 70.5405 76.6733 70.6875 76.1509 70.8882C75.897 70.9819 75.8306 71.0088 75.7368 71.0088C75.4819 71.0088 74.6128 70.3931 74.6128 69.5635C74.6128 69.3628 74.6528 69.2422 74.6929 69.1084C75.1079 69.7373 75.4556 69.9648 75.9907 69.9648C76.1382 69.9648 81.6108 69.3628 82.4409 69.2822C82.5747 69.269 83.1362 69.0684 83.2573 69.0684C83.3237 69.0684 84.689 69.3228 84.689 69.938C84.689 70.313 84.4351 70.313 84.3276 70.313ZM81.3169 67.5562C80.8882 67.5693 80.2056 67.5962 79.7915 67.6362C79.0952 67.7168 77.771 67.8506 77.6899 67.8506C77.4624 67.8506 76.5259 67.6631 76.6333 66.5928C77.0747 66.9673 77.5298 67.0879 78.2388 67.0879C79.0015 67.0879 79.9653 66.9673 80.728 66.7397C81.0093 66.6597 81.2095 66.5928 81.3169 66.5928C81.6646 66.5928 82.4546 66.7397 82.4546 67.168C82.4546 67.5161 82.146 67.5293 81.3169 67.5562Z" fill="#534741"/>
<path d="M93.1714 68.8276C92.7837 69.0283 91.4722 70.5 91.1909 70.7676C91.6196 71.062 91.6733 71.0889 91.6733 71.2227C91.6733 71.2764 91.606 71.5708 91.5923 71.624C91.5396 71.9453 91.5259 72.6411 91.5259 73.3774C91.5259 73.8052 91.5659 75.6655 91.5659 76.0532C91.5659 76.2144 91.5659 76.6284 91.1782 76.6284C90.8433 76.6284 90.6558 76.1333 90.6558 75.8794C90.6558 75.772 90.7368 75.2905 90.7495 75.1968C90.8169 74.4077 90.8706 73.23 90.8706 72.4404C90.8706 71.5977 90.8433 71.4102 90.7495 71.1694C90.1606 71.6777 88.4478 73.1362 86.896 73.6313L86.856 73.4976C89.1304 72.1328 92.2485 68.814 92.2485 68.1982C92.2485 67.9976 92.061 67.8906 91.6196 67.623C91.8335 67.583 91.9272 67.5562 92.0474 67.5562C92.8511 67.5562 93.4927 68.3457 93.4927 68.5063C93.4927 68.6533 93.3862 68.707 93.1714 68.8276Z" fill="#534741"/>
<path d="M101.026 68.3057H99.5278V68.7739C99.8081 68.814 101.053 69.1484 101.053 69.9111C101.053 70.2192 100.812 70.4062 100.611 70.4062C100.357 70.4062 100.317 70.3262 99.9692 69.6304C99.8218 69.3228 99.7144 69.1621 99.5278 68.9878V71.0088C99.5278 71.9053 99.5679 75.853 99.5679 76.6558C99.5679 76.8032 99.5679 77.0171 99.3403 77.1772C99.1929 77.2983 98.9653 77.3247 98.8452 77.3247C98.7378 77.3247 98.5239 77.311 98.5239 77.0308C98.5239 76.9771 98.6177 75.9868 98.6177 75.7856C98.6714 74.314 98.7114 73.0688 98.7378 71.0757C98.7515 70.5806 98.7378 70.5405 98.7515 70.2192C98.0952 71.999 96.8647 73.4302 96.2222 73.8589L96.1548 73.7915C97.4399 72.0928 98.4966 69.0547 98.644 68.3057C98.2827 68.3057 97.6001 68.3057 96.9585 68.4258L96.6899 67.9038C97.4663 67.9575 97.5874 67.9575 98.7778 67.9844C98.8052 66.9673 98.7378 65.6289 98.4839 65.0938L99.8354 65.4019C99.9292 65.4282 100.089 65.4687 100.089 65.5757C100.089 65.6426 99.9692 65.7495 99.9019 65.8032C99.8481 65.8564 99.6743 66.0039 99.5806 66.084C99.5542 66.6196 99.5405 67.1548 99.5278 67.9844H99.8755L100.209 67.623C100.291 67.543 100.371 67.4492 100.437 67.4492C100.518 67.4492 100.611 67.543 100.678 67.5962L101.093 67.9575C101.173 68.0381 101.227 68.0781 101.227 68.1719C101.227 68.292 101.12 68.3057 101.026 68.3057ZM108.079 70.7412C107.208 70.4199 105.589 69.0684 105.028 67.8237H103.743C103.408 68.4395 103.087 68.8677 102.86 69.1753L103.381 69.4966H105.295L105.469 69.2959C105.523 69.229 105.657 69.1753 105.697 69.1753C105.75 69.1753 105.871 69.2422 105.911 69.2822L106.338 69.6973C106.392 69.751 106.432 69.8042 106.432 69.8579C106.432 69.938 106.312 70.0586 106.178 70.1523C106.165 70.3662 106.192 71.3701 106.178 71.5439C106.152 71.7983 105.831 71.9453 105.643 71.9453C105.335 71.9453 105.335 71.8252 105.348 71.5439H103.341C103.288 71.9854 102.819 71.999 102.752 71.999C102.565 71.999 102.499 71.9053 102.499 71.6777C102.499 71.397 102.565 70.2056 102.565 69.9517C102.565 69.791 102.551 69.6973 102.551 69.5498C101.736 70.5269 100.919 70.9951 100.424 71.2764L100.384 71.1958C100.838 70.7544 101.762 69.8711 102.873 67.8237C102.417 67.8237 101.856 67.8638 101.401 67.9575L101.133 67.4224C101.829 67.4761 102.204 67.4893 103.034 67.5024C103.167 67.208 103.248 67.061 103.421 66.5259C102.954 66.5659 102.471 66.606 101.99 66.606C101.816 66.606 101.521 66.606 101.066 66.5522V66.4453C102.297 66.3516 105.214 65.6426 106.044 65L106.955 65.8301C107.008 65.8701 107.035 65.9102 107.035 65.9771C107.035 66.1108 106.901 66.1108 106.833 66.1108C106.7 66.1108 106.58 66.084 106.392 66.0308C106.044 66.1108 105.469 66.2583 104.385 66.4185C104.17 66.9941 104.024 67.2749 103.903 67.5024H106.955L107.422 66.9941C107.49 66.9136 107.57 66.8203 107.637 66.8203C107.731 66.8203 107.811 66.9004 107.877 66.9673L108.48 67.4761C108.546 67.543 108.6 67.623 108.6 67.6899C108.6 67.8105 108.494 67.8237 108.4 67.8237H105.214C105.977 68.8276 107.931 69.7104 109.175 69.6572V69.7642C108.68 69.9248 108.292 70.3262 108.079 70.7412ZM107.784 73.0425C107.771 73.4839 107.824 75.6382 107.824 76.1333C107.824 76.4146 107.797 76.6421 107.53 76.856C107.061 77.231 106.821 77.271 106.58 77.311C106.312 76.5356 105.616 76.2144 105.469 76.147V76.0669C105.723 76.0806 106.406 76.1206 106.526 76.1206C106.7 76.1206 106.861 76.1069 106.915 75.9331C106.941 75.8394 106.941 75.1567 106.941 74.769C106.941 74.3003 106.927 73.23 106.915 72.7349H101.749C101.722 73.2563 101.776 75.853 101.776 76.4419C101.776 76.9233 101.455 77.1108 101.213 77.1108C100.892 77.1108 100.798 76.9497 100.798 76.7495C100.798 76.522 100.892 75.7319 100.892 73.3101C100.892 72.9888 100.892 72.4541 100.812 71.7983L101.882 72.4136H106.793L107.168 71.9854C107.208 71.9453 107.262 71.8921 107.316 71.8921C107.382 71.8921 107.422 71.9321 107.53 72.0122L108.079 72.4673C108.132 72.5073 108.199 72.561 108.199 72.6411C108.199 72.708 107.891 72.9487 107.784 73.0425ZM105.763 74.0728C105.75 74.2339 105.777 75.063 105.777 75.2505C105.777 75.5981 105.643 75.7593 105.202 75.7593C105.014 75.7593 104.907 75.7056 104.947 75.3042H103.395C103.475 75.853 103.167 76.0269 102.886 76.0269C102.565 76.0269 102.565 75.813 102.565 75.5854C102.565 75.3979 102.592 74.4741 102.592 74.2739C102.592 73.9253 102.551 73.27 102.511 73.0688L103.449 73.5112H104.893L105.121 73.23C105.162 73.1763 105.214 73.1226 105.282 73.1226C105.348 73.1226 105.442 73.1763 105.523 73.23L106.004 73.5776C106.058 73.6177 106.098 73.6577 106.098 73.7251C106.098 73.8052 105.964 73.9126 105.763 74.0728ZM105.362 69.8179H103.341V71.2227H105.362V69.8179ZM104.974 73.8315H103.395V74.9829H104.974V73.8315Z" fill="#534741"/>
<path d="M113.551 68.1982C113.216 68.1982 112.575 68.1982 111.972 68.3188L111.705 67.7837C112.615 67.8638 113.565 67.8774 113.765 67.8774H117.017C117.017 67.4355 117.017 65.9502 116.75 65.1206L118.195 65.562C118.315 65.6025 118.382 65.6426 118.382 65.7363C118.382 65.8564 118.315 65.9502 117.9 66.1646C117.9 66.2583 117.887 67.3018 117.874 67.8774H121.032L121.661 67.1279C121.754 67.0073 121.821 66.9541 121.888 66.9541C121.956 66.9541 122.036 67.0073 122.156 67.1011L123.132 67.8369C123.226 67.9038 123.266 67.9844 123.266 68.0513C123.266 68.145 123.2 68.1982 123.066 68.1982H118.155C119.199 70.6074 121.621 73.1362 123.922 73.6978V73.7915C123.374 73.8989 123.012 73.9663 122.383 74.6216C120.804 73.4438 119.881 72.2397 119.292 71.2495C118.315 69.6035 117.954 68.2651 117.941 68.1982H117.874C117.86 69.0415 117.847 69.6167 117.847 69.7642C117.847 70.353 117.874 72.9487 117.874 73.4839H118.676L119.145 72.9224C119.239 72.8149 119.305 72.7612 119.373 72.7612C119.439 72.7612 119.52 72.8149 119.613 72.895L120.255 73.4438C120.349 73.5239 120.389 73.5913 120.389 73.6577C120.389 73.7388 120.309 73.8052 120.189 73.8052H117.874C117.887 74.2339 117.954 76.1743 117.954 76.5757C117.954 77.1909 117.378 77.2446 117.245 77.2446C116.803 77.2446 116.803 76.9634 116.803 76.8296C116.803 76.4282 116.883 75.7993 116.897 75.3979C116.937 74.6216 116.951 74.1528 116.951 73.8052H116.214C115.879 73.8052 115.238 73.8052 114.635 73.9253L114.368 73.3901C115.197 73.4575 116.027 73.4839 116.428 73.4839H116.951C116.963 72.8823 117.017 69.6304 117.017 69.269C116.161 70.7812 114.248 73.5376 111.303 74.6479L111.263 74.5679C114.434 72.2266 116.187 69.0684 116.508 68.1982H113.551V68.1982Z" fill="#534741"/>
</svg>
