<svg width="130" height="97" viewBox="0 0 130 97" fill="none" xmlns="http://www.w3.org/2000/svg">
<path d="M64.6672 7.49666L61.967 6.95295C62.0549 4.68763 62.1485 2.1661 62.2505 0C61.7026 0.0839945 61.1783 0.158124 60.6789 0.220133C60.1738 0.283552 59.6687 0.312302 59.1746 0.312302C58.6709 0.312302 58.1669 0.283552 57.6689 0.220133C57.168 0.158124 56.642 0.0839945 56.0972 0C56.1851 1.80983 56.2624 3.86995 56.334 5.82719L50.3732 4.62985V56.1794L64.6672 53.3115L66.0159 53.5922C65.8603 54.294 65.6706 54.9519 65.4434 55.5602C64.8969 57.0244 64.1057 58.1668 63.0626 58.9803C62.0191 59.8005 60.6168 60.2064 58.858 60.2064L59.3657 61.9598C61.2031 61.9598 62.9041 61.6157 64.473 60.9262C66.0449 60.2326 67.3894 59.283 68.5194 58.0746C69.4786 57.0425 70.2452 55.8837 70.8261 54.5996L78.4257 56.1893V4.61463L64.6672 7.49666ZM64.681 50.6978L52.9373 53.0499V7.754L56.4343 8.45301C56.4385 8.55617 56.4439 8.66215 56.4453 8.76137C56.5527 11.4176 56.6023 14.126 56.6023 16.884V27.6742C56.6023 30.4337 56.5527 33.1545 56.4453 35.8313C56.3407 38.5067 56.2266 41.1368 56.0972 43.7338C58.1066 43.6498 60.0387 43.6087 61.8982 43.6087H66.7053V46.2043C66.7053 48.6692 66.627 48.3485 66.4824 50.3579C66.4646 50.596 66.4412 50.83 66.4192 51.0597L64.681 50.6978ZM75.8647 53.0417L71.6489 52.1581C71.9037 51.0817 72.0288 49.9339 72.0288 48.7228C72.0288 47.2185 72.0178 48.1297 72.0012 46.3267C71.9767 44.5335 71.9615 42.6591 71.9299 40.7157C71.9175 38.7711 71.8927 36.7919 71.8718 34.7853C71.8527 32.7841 71.8417 30.8328 71.8417 28.9542C71.8417 26.1933 71.8927 23.4847 72.0012 20.8326C72.1047 18.1778 72.2242 16.1078 72.34 13.3512C71.7991 13.431 71.2774 13.5068 70.7779 13.5674C70.2742 13.6291 69.7745 13.661 69.2708 13.661C68.7714 13.661 68.2635 13.6291 67.7612 13.5674C67.2671 13.5068 66.7425 13.431 66.2002 13.3512C66.3214 16.1078 66.437 18.1778 66.5444 20.8326C66.6461 23.4847 66.7053 26.1933 66.7053 28.9542V40.9414C65.1503 40.9606 63.5634 40.9744 61.9365 40.9744C61.894 37.9205 61.85 34.462 61.8114 30.5918C61.7646 26.7244 61.744 22.1565 61.744 16.884C61.744 14.3958 61.7866 11.9529 61.8734 9.54579L64.681 10.1073L75.8647 7.7664V53.0417Z" fill="#534741"/>
<path d="M0.102754 83.0524C0.0714057 82.26 0.0365736 81.4501 0 80.6263C0.161969 80.6525 0.318713 80.6734 0.46849 80.6925C0.618268 80.7117 0.768046 80.7204 0.917823 80.7204C1.0676 80.7204 1.21738 80.7117 1.36716 80.6925C1.51693 80.6734 1.67368 80.6525 1.83565 80.6263C1.79733 81.4501 1.7625 82.26 1.73289 83.0524C1.70154 83.8448 1.68587 84.6529 1.68587 85.4767C1.68587 87.0511 1.69109 88.4148 1.70328 89.5695C1.71722 90.7241 1.72941 91.7587 1.7416 92.6695C2.62807 92.6695 3.47623 92.6608 4.28956 92.6416C5.10115 92.6225 5.97369 92.5511 6.91067 92.4257C6.84797 92.6503 6.81662 92.8384 6.81662 92.9882C6.81662 93.1258 6.84797 93.2947 6.91067 93.4933C6.33594 93.4689 5.76121 93.4567 5.18823 93.4567C4.6135 93.4567 4.03877 93.4567 3.46404 93.4567C2.86493 93.4567 2.28846 93.4567 1.73289 93.4567C1.17732 93.4567 0.59911 93.4689 0 93.4933C0.0365736 92.72 0.0714057 91.9328 0.102754 91.1334C0.134103 90.3358 0.149778 89.5224 0.149778 88.6987V85.4767C0.149778 84.6529 0.134103 83.8448 0.102754 83.0524Z" fill="#534741"/>
<path d="M9.8313 89.336C9.8313 87.7999 10.197 86.5947 10.9285 85.7204C11.6582 84.8479 12.7224 84.4108 14.1209 84.4108C14.7827 84.4108 15.3539 84.5135 15.8346 84.719C16.3153 84.9245 16.7176 85.1997 17.0433 85.5428C17.3672 85.8859 17.6075 86.29 17.7643 86.7515C17.9193 87.213 17.9977 87.7059 17.9977 88.2301C17.9977 88.3555 17.9942 88.4774 17.989 88.5958C17.982 88.7143 17.9733 88.8362 17.9611 88.9616C17.2871 88.9494 16.6183 88.9354 15.9565 88.9233C15.2947 88.9111 14.6259 88.9041 13.9519 88.9041C13.5409 88.9041 13.1316 88.9111 12.7258 88.9233C12.32 88.9354 11.9108 88.9494 11.4998 88.9616C11.4858 89.0243 11.4806 89.1166 11.4806 89.242V89.4858C11.4806 89.9717 11.552 90.428 11.6948 90.8529C11.8394 91.2779 12.0484 91.6419 12.3235 91.9484C12.597 92.2549 12.9348 92.4988 13.3337 92.6781C13.7342 92.8593 14.1957 92.9498 14.72 92.9498C14.9708 92.9498 15.2268 92.9167 15.488 92.8471C15.751 92.7792 16.007 92.6851 16.2561 92.5667C16.5051 92.4483 16.7402 92.3072 16.9579 92.1452C17.1774 91.9832 17.3672 91.8073 17.5292 91.621L17.6232 91.6767L17.5118 92.5945C17.1373 92.8941 16.6706 93.1501 16.115 93.3626C15.5594 93.5751 14.983 93.6813 14.3838 93.6813C13.7081 93.6813 13.0933 93.5785 12.5377 93.3713C11.9822 93.1658 11.5015 92.8662 11.0957 92.4726C10.6899 92.079 10.3782 91.614 10.1605 91.0776C9.94102 90.5412 9.8313 89.9595 9.8313 89.336ZM14.1592 85.0099C13.6959 85.0099 13.3058 85.1161 12.9871 85.3268C12.6701 85.5393 12.4071 85.8058 12.2016 86.1245C11.9944 86.4415 11.8394 86.7915 11.7331 87.1729C11.6269 87.5544 11.5607 87.9131 11.5363 88.2493C11.923 88.2614 12.3253 88.2754 12.745 88.2876C13.163 88.2998 13.5723 88.305 13.9711 88.305C14.3838 88.305 14.8018 88.2998 15.2268 88.2876C15.65 88.2754 16.0627 88.2614 16.4616 88.2493C16.4616 87.9131 16.4337 87.5561 16.378 87.1817C16.3222 86.8072 16.209 86.4571 16.0401 86.1332C15.8729 85.8093 15.6378 85.5393 15.3382 85.3268C15.0387 85.1161 14.6451 85.0099 14.1592 85.0099Z" fill="#534741"/>
<path d="M30.1158 95.207C30.4275 94.9632 30.6661 94.6236 30.8281 94.1864C30.9901 93.7493 31.0928 93.232 31.1363 92.6329C31.1799 92.0321 31.2025 91.365 31.2025 90.6284V85.4767C31.2025 84.6529 31.1869 83.8448 31.1555 83.0524C31.1242 82.26 31.0893 81.4501 31.0527 80.6263C31.2147 80.6525 31.3715 80.6734 31.5212 80.6925C31.671 80.7117 31.8208 80.7204 31.9706 80.7204C32.1204 80.7204 32.2701 80.7117 32.4199 80.6925C32.5697 80.6734 32.7264 80.6525 32.8884 80.6263C32.8501 81.4501 32.8152 82.26 32.7856 83.0524C32.7543 83.8448 32.7386 84.6529 32.7386 85.4767C32.7386 86.0392 32.7404 86.6192 32.7473 87.22C32.7543 87.8192 32.7595 88.4096 32.7665 88.9895C32.7717 89.5695 32.7787 90.1285 32.7856 90.6649C32.7909 91.2031 32.7943 91.696 32.7943 92.1453C32.7943 92.7078 32.7038 93.2216 32.5227 93.6901C32.3415 94.1586 32.082 94.5731 31.7459 94.9353C31.408 95.2976 31.0057 95.5815 30.5372 95.7887C30.0687 95.9942 29.5602 96.097 29.0116 96.097L28.8618 95.5728C29.386 95.5728 29.804 95.4508 30.1158 95.207Z" fill="#534741"/>
<path d="M49.4074 93.4932C49.2333 93.4688 49.0678 93.4566 48.9111 93.4566C48.7543 93.4566 48.5906 93.4566 48.4147 93.4566C48.2406 93.4566 48.0751 93.4566 47.9184 93.4566C47.7616 93.4566 47.5979 93.4688 47.422 93.4932C47.3349 93.2058 47.2165 92.8593 47.0667 92.4535C46.917 92.0494 46.7515 91.6245 46.5704 91.1804C46.3892 90.738 46.2046 90.2887 46.0183 89.8324C45.8302 89.3761 45.656 88.9424 45.4941 88.5297C45.0935 88.5175 44.6877 88.5088 44.2767 88.5018C43.8639 88.4966 43.4512 88.4931 43.0402 88.4931C42.6518 88.4931 42.2721 88.4966 41.8977 88.5018C41.5232 88.5088 41.1418 88.5175 40.7552 88.5297C40.3546 89.5049 39.9923 90.4315 39.6684 91.311C39.3445 92.1922 39.1007 92.9202 38.9387 93.4932C38.7262 93.4688 38.4946 93.4566 38.2455 93.4566C37.9947 93.4566 37.7648 93.4688 37.5524 93.4932C38.5642 91.3092 39.55 89.1357 40.5113 86.9761C41.4727 84.8166 42.441 82.6187 43.4146 80.3824H43.7699C44.0694 81.107 44.3951 81.8907 44.7434 82.7336C45.0935 83.5765 45.4488 84.4282 45.811 85.2903C46.1733 86.1524 46.5355 87.0075 46.8978 87.8557C47.26 88.7056 47.5997 89.4945 47.9184 90.226C48.2371 90.9557 48.5244 91.6088 48.7805 92.1818C49.0365 92.7565 49.2455 93.1937 49.4074 93.4932ZM41.1105 87.6693C41.4344 87.6693 41.7723 87.6745 42.1223 87.6867C42.4706 87.7006 42.8085 87.7059 43.1342 87.7059C43.4825 87.7059 43.8326 87.7041 44.1826 87.6972C44.531 87.6902 44.881 87.6815 45.2311 87.6693L43.1516 82.9112L41.1105 87.6693Z" fill="#534741"/>
<path d="M54.5591 85.4767C54.5591 84.6529 54.5434 83.8448 54.5121 83.0524C54.4807 82.26 54.4459 81.4501 54.4093 80.6263C54.883 80.6525 55.355 80.6734 55.8235 80.6925C56.292 80.7117 56.7622 80.7204 57.2377 80.7204C57.7114 80.7204 58.1833 80.7047 58.6518 80.6734C59.1203 80.642 59.5906 80.6263 60.066 80.6263C61.1632 80.6263 62.1037 80.7709 62.8839 81.0583C63.6642 81.3456 64.3051 81.7532 64.8032 82.2843C65.303 82.8155 65.6687 83.4634 65.9004 84.2315C66.1303 84.9995 66.2452 85.8651 66.2452 86.8264C66.2452 88.0752 66.031 89.1271 65.5991 89.9822C65.1689 90.8373 64.6203 91.527 63.9515 92.0512C63.2828 92.5755 62.5478 92.9482 61.7414 93.1659C60.9368 93.3853 60.1653 93.4933 59.4286 93.4933C59.0036 93.4933 58.5857 93.4881 58.1729 93.4759C57.7619 93.4619 57.3439 93.4567 56.9189 93.4567C56.494 93.4567 56.076 93.4567 55.6633 93.4567C55.2522 93.4567 54.8343 93.4689 54.4093 93.4933C54.4459 92.72 54.4807 91.9328 54.5121 91.1334C54.5434 90.3358 54.5591 89.5224 54.5591 88.6987V85.4767V85.4767ZM56.0952 88.6987C56.0952 90.0484 56.1317 91.372 56.2066 92.6695C56.4696 92.7322 56.8249 92.7792 57.2742 92.8106C57.7236 92.8419 58.1868 92.8576 58.6605 92.8576C59.3467 92.8576 60.0347 92.7757 60.7209 92.6138C61.4071 92.4518 62.0218 92.1453 62.5652 91.696C63.1086 91.2466 63.5527 90.6318 63.8958 89.8516C64.2389 89.0714 64.4113 88.063 64.4113 86.8264C64.4113 85.7397 64.2755 84.848 64.0073 84.1479C63.7391 83.4495 63.3716 82.8956 62.9031 82.4899C62.4346 82.0841 61.8755 81.8037 61.2259 81.6469C60.578 81.4919 59.8657 81.4135 59.0907 81.4135C58.5299 81.4135 58.0057 81.4327 57.5181 81.4693C57.0304 81.5076 56.5933 81.5511 56.2066 81.5999C56.1701 82.2007 56.1422 82.8277 56.123 83.4826C56.1039 84.1392 56.0952 84.8027 56.0952 85.4767V88.6987V88.6987Z" fill="#534741"/>
<path d="M70.5819 83.0245C70.5505 82.2251 70.5157 81.4257 70.4791 80.6263C71.0399 80.6525 71.599 80.6734 72.1545 80.6925C72.7101 80.7117 73.2692 80.7204 73.8317 80.7204C74.3925 80.7204 74.9481 80.7117 75.4984 80.6925C76.047 80.6734 76.6026 80.6525 77.1651 80.6263C77.1286 80.8144 77.1094 81.0008 77.1094 81.1889C77.1094 81.3752 77.1286 81.5633 77.1651 81.7497C76.7663 81.7253 76.4006 81.7009 76.0697 81.6748C75.7388 81.6504 75.3887 81.626 75.0212 81.5999C74.652 81.5755 74.2497 81.5546 73.8125 81.5355C73.3754 81.5163 72.8512 81.5076 72.2399 81.5076C72.2277 81.9064 72.212 82.2878 72.1929 82.6501C72.1737 83.0123 72.165 83.4234 72.165 83.8849C72.165 84.3725 72.1667 84.848 72.1737 85.3095C72.1807 85.771 72.1824 86.1211 72.1824 86.3579C72.7328 86.3579 73.2256 86.351 73.6628 86.3388C74.0999 86.3266 74.4987 86.3109 74.861 86.2918C75.2232 86.2744 75.5576 86.2552 75.8642 86.236C76.1689 86.2169 76.4598 86.196 76.735 86.1699C76.6966 86.3579 76.6775 86.5513 76.6775 86.7516C76.6775 86.9379 76.6966 87.126 76.735 87.3123C76.4093 87.2758 76.0313 87.2444 75.6012 87.22C75.171 87.1939 74.7391 87.1782 74.3089 87.173C73.8787 87.1661 73.4729 87.1608 73.0915 87.1539C72.7101 87.1469 72.4088 87.1452 72.1824 87.1452C72.1824 87.2566 72.1807 87.3785 72.1737 87.5091C72.1667 87.6415 72.165 87.807 72.165 88.0055V88.737V89.8603C72.165 90.5726 72.1667 91.1595 72.1737 91.6211C72.1807 92.0826 72.1894 92.4326 72.2016 92.6695C72.6143 92.6695 73.0515 92.6695 73.513 92.6695C73.9867 92.6695 74.4517 92.6608 74.908 92.6416C75.3643 92.6225 75.7945 92.5981 76.2003 92.5668C76.6061 92.5354 76.9596 92.4884 77.2592 92.4257C77.2331 92.5145 77.2191 92.6103 77.2122 92.7165C77.2052 92.8228 77.2034 92.9203 77.2034 93.0074C77.2034 93.2059 77.2209 93.3696 77.2592 93.4933C76.6966 93.4689 76.1376 93.4567 75.582 93.4567C75.0264 93.4567 74.4622 93.4567 73.8874 93.4567C73.3127 93.4567 72.7449 93.4567 72.1824 93.4567C71.6216 93.4567 71.0539 93.4689 70.4791 93.4933C70.5157 92.6956 70.5505 91.898 70.5819 91.1056C70.6132 90.3131 70.6289 89.505 70.6289 88.6795V85.4593C70.6289 84.6355 70.6132 83.8239 70.5819 83.0245Z" fill="#534741"/>
<path d="M97.345 93.0543C97.1012 93.1728 96.8086 93.279 96.4655 93.3713C96.1224 93.4653 95.7375 93.5507 95.3126 93.6256C94.8894 93.7005 94.4453 93.737 93.9837 93.737C92.9962 93.737 92.0854 93.596 91.2494 93.3156C90.4117 93.0352 89.6907 92.6067 89.0864 92.032C88.4803 91.459 88.0066 90.7554 87.6617 89.9264C87.3186 89.0957 87.1479 88.15 87.1479 87.0876C87.1479 86.027 87.3186 85.0813 87.6617 84.2505C88.0066 83.4198 88.4872 82.7179 89.1038 82.1432C89.722 81.5702 90.4622 81.1331 91.3243 80.8318C92.1864 80.5322 93.1338 80.3824 94.1701 80.3824C94.9956 80.3824 95.7462 80.4678 96.4272 80.6367C97.1082 80.8039 97.7108 81.0077 98.235 81.2445C98.1357 81.4204 98.0538 81.6573 97.9912 81.9569C97.9285 82.2564 97.8797 82.5055 97.8414 82.7057L97.7299 82.7423C97.6045 82.5925 97.4304 82.4253 97.2057 82.2373C96.981 82.0492 96.718 81.8698 96.4185 81.6939C96.1189 81.5197 95.7811 81.3734 95.4066 81.2532C95.0322 81.1348 94.6212 81.0756 94.1701 81.0756C93.4334 81.0756 92.7507 81.194 92.1202 81.4326C91.4898 81.6695 90.9394 82.0352 90.4727 82.5281C90.0042 83.021 89.6384 83.6445 89.3755 84.4003C89.1142 85.1562 88.9836 86.0514 88.9836 87.0876C88.9836 88.1256 89.1142 89.0208 89.3755 89.7766C89.6384 90.5308 90.0042 91.156 90.4727 91.6489C90.9394 92.1417 91.4898 92.5075 92.1202 92.7443C92.7507 92.9812 93.4334 93.0996 94.1701 93.0996C94.6212 93.0996 95.0357 93.0439 95.4171 92.9324C95.7967 92.8192 96.1468 92.6851 96.4655 92.5284C96.7842 92.3734 97.0716 92.2044 97.3276 92.0233C97.5819 91.8422 97.7978 91.6837 97.9737 91.5461L98.0486 91.621L97.8797 92.7252C97.7665 92.8262 97.5888 92.9342 97.345 93.0543Z" fill="#534741"/>
<path d="M102.14 83.0524C102.108 82.26 102.073 81.4501 102.037 80.6263C102.199 80.6525 102.356 80.6734 102.505 80.6925C102.655 80.7117 102.805 80.7204 102.955 80.7204C103.104 80.7204 103.254 80.7117 103.404 80.6925C103.554 80.6734 103.711 80.6525 103.873 80.6263C103.834 81.4501 103.799 82.26 103.77 83.0524C103.738 83.8448 103.723 84.6529 103.723 85.4767V88.6987C103.723 89.5224 103.738 90.3358 103.77 91.1334C103.799 91.9328 103.834 92.72 103.873 93.4933C103.585 93.4689 103.279 93.4567 102.955 93.4567C102.629 93.4567 102.324 93.4689 102.037 93.4933C102.073 92.72 102.108 91.9328 102.14 91.1334C102.171 90.3358 102.187 89.5224 102.187 88.6987V85.4767C102.187 84.6529 102.171 83.8448 102.14 83.0524Z" fill="#534741"/>
<path d="M111.438 81.5999C111.114 81.5999 110.775 81.6034 110.418 81.6103C110.062 81.6156 109.707 81.6295 109.35 81.6469C108.995 81.6661 108.652 81.6887 108.321 81.7131C107.99 81.7375 107.694 81.7688 107.431 81.8071C107.493 81.5825 107.525 81.3822 107.525 81.208C107.525 81.0705 107.493 80.8771 107.431 80.6263C108.254 80.6525 109.061 80.6734 109.846 80.6925C110.633 80.7117 111.438 80.7204 112.264 80.7204C113.087 80.7204 113.892 80.7117 114.679 80.6925C115.466 80.6734 116.271 80.6525 117.095 80.6263C117.032 80.8771 117.001 81.0757 117.001 81.2255C117.001 81.3892 117.032 81.5825 117.095 81.8071C116.834 81.7688 116.536 81.7375 116.205 81.7131C115.874 81.6887 115.531 81.6661 115.176 81.6469C114.82 81.6295 114.463 81.6156 114.108 81.6103C113.753 81.6034 113.411 81.5999 113.087 81.5999C113.049 82.8869 113.032 84.1792 113.032 85.4767V88.6987C113.032 89.5224 113.046 90.3358 113.077 91.1334C113.108 91.9328 113.143 92.72 113.181 93.4933C112.894 93.4689 112.588 93.4567 112.264 93.4567C111.938 93.4567 111.633 93.4689 111.346 93.4933C111.382 92.72 111.417 91.9328 111.449 91.1334C111.48 90.3358 111.496 89.5224 111.496 88.6987V85.4767C111.496 84.1792 111.476 82.8869 111.438 81.5999Z" fill="#534741"/>
<path d="M123.932 88.2302C123.807 88.0194 123.622 87.7094 123.38 87.3036C123.136 86.8978 122.868 86.4485 122.574 85.9556C122.281 85.4628 121.971 84.9438 121.647 84.4004C121.322 83.857 121.013 83.3398 120.721 82.8469C120.426 82.3523 120.162 81.9099 119.923 81.5163C119.686 81.1227 119.505 80.8266 119.381 80.6263C119.556 80.6525 119.728 80.6734 119.895 80.6925C120.064 80.7117 120.237 80.7204 120.411 80.7204C120.585 80.7204 120.757 80.7117 120.926 80.6925C121.095 80.6734 121.266 80.6525 121.442 80.6263C122.003 81.7131 122.574 82.7807 123.156 83.8291C123.735 84.8776 124.35 85.9713 125 87.1068C125.287 86.6575 125.587 86.1646 125.899 85.6282C126.21 85.0901 126.522 84.5415 126.836 83.9789C127.147 83.4181 127.447 82.8521 127.734 82.2843C128.022 81.7166 128.29 81.1645 128.539 80.6263C128.851 80.689 129.094 80.7204 129.27 80.7204C129.444 80.7204 129.688 80.689 130 80.6263C129.401 81.5389 128.864 82.3627 128.389 83.0994C127.915 83.8361 127.497 84.5031 127.135 85.1023C126.773 85.7031 126.454 86.243 126.179 86.7237C125.906 87.2044 125.667 87.638 125.468 88.0247C125.468 88.4862 125.47 88.9808 125.477 89.505C125.484 90.0292 125.493 90.543 125.505 91.0498C125.517 91.5549 125.533 92.0234 125.552 92.4535C125.571 92.8855 125.592 93.232 125.618 93.4933C125.331 93.4689 125.024 93.4567 124.7 93.4567C124.375 93.4567 124.07 93.4689 123.782 93.4933C123.857 92.8454 123.901 92.0582 123.913 91.1334C123.925 90.2104 123.932 89.242 123.932 88.2302Z" fill="#534741"/>
</svg>
